<svg width="32" height="32" viewBox="0 0 32 32" fill="none" xmlns="http://www.w3.org/2000/svg">
<path d="M26.9347 6.06114C24.8764 5.09814 22.6756 4.39827 20.3748 3.99976C20.0922 4.51063 19.7621 5.19778 19.5345 5.74439C17.0886 5.37657 14.6653 5.37657 12.2644 5.74439C12.0368 5.19778 11.6992 4.51063 11.4141 3.99976C9.11077 4.39827 6.90747 5.10071 4.84922 6.06624C0.697725 12.3397 -0.427678 18.4573 0.135025 24.4881C2.88852 26.5443 5.55698 27.7934 8.18041 28.6108C8.82815 27.7193 9.40585 26.7717 9.90352 25.7729C8.95569 25.4128 8.04786 24.9683 7.19008 24.4524C7.41765 24.2838 7.64024 24.1075 7.8553 23.9261C13.0872 26.3732 18.7717 26.3732 23.9411 23.9261C24.1587 24.1075 24.3812 24.2838 24.6063 24.4524C23.746 24.9709 22.8357 25.4153 21.8879 25.7755C22.3855 26.7717 22.9607 27.7219 23.611 28.6133C26.2369 27.796 28.9079 26.5469 31.6614 24.4881C32.3216 17.4969 30.5335 11.4354 26.9347 6.06114ZM10.6163 20.7792C9.04574 20.7792 7.75775 19.313 7.75775 17.5275C7.75775 15.7421 9.01823 14.2733 10.6163 14.2733C12.2144 14.2733 13.5023 15.7395 13.4748 17.5275C13.4773 19.313 12.2144 20.7792 10.6163 20.7792ZM21.1801 20.7792C19.6095 20.7792 18.3216 19.313 18.3216 17.5275C18.3216 15.7421 19.582 14.2733 21.1801 14.2733C22.7782 14.2733 24.0661 15.7395 24.0386 17.5275C24.0386 19.313 22.7782 20.7792 21.1801 20.7792Z" fill="#2080E2"/>
</svg>
