<svg width="32" height="32" viewBox="0 0 32 32" fill="none" xmlns="http://www.w3.org/2000/svg">
<path d="M11.1789 29.6842C12.1473 29.6842 12.421 29.3053 12.421 28.821C12.421 28.3368 12.421 27.2842 12.4 25.7895C7.36839 26.8632 6.2947 23.3895 6.2947 23.3895C5.47365 21.3474 4.27365 20.7789 4.27365 20.7789C2.63155 19.6842 4.39997 19.7053 4.39997 19.7053C6.21049 19.8316 7.17892 21.5368 7.17892 21.5368C8.79997 24.2737 11.4105 23.4737 12.4421 23.0105C12.5263 22.1053 12.9263 21.2421 13.6 20.6105C9.57892 20.1684 5.34734 18.6316 5.34734 11.8105C5.32628 10.0421 5.99997 8.31578 7.22102 7.03157C7.01049 6.58947 6.39997 4.77894 7.36839 2.31578C7.36839 2.31578 8.88418 1.83157 12.3579 4.14736C15.3263 3.34736 18.4421 3.34736 21.4105 4.14736C24.8421 1.85263 26.3789 2.31578 26.3789 2.31578C27.3473 4.75789 26.7368 6.56842 26.5684 7.03157C27.7894 8.31578 28.4421 10.0421 28.421 11.8105C28.421 18.6526 24.1894 20.1474 20.1473 20.5895C20.7789 21.1158 21.3684 22.2105 21.3684 23.8737C21.3684 26.2737 21.3473 28.1684 21.3473 28.7368C21.3473 29.2 21.5579 29.5789 22.5894 29.5789L11.1789 29.6842Z" fill="#2080E2"/>
</svg>
