<svg width="32" height="32" viewBox="0 0 32 32" fill="none" xmlns="http://www.w3.org/2000/svg">
<path d="M28.8003 28.7999V19.4239C28.8003 14.8159 27.8083 11.2959 22.4323 11.2959C19.8403 11.2959 18.1123 12.7039 17.4083 14.0479H17.3443V11.7119H12.2563V28.7999H17.5683V20.3199C17.5683 18.0799 17.9843 15.9359 20.7363 15.9359C23.4563 15.9359 23.4883 18.4639 23.4883 20.4479V28.7679H28.8003V28.7999Z" fill="#2080E2"/>
<path d="M3.61621 11.7119H8.92821V28.7999H3.61621V11.7119Z" fill="#2080E2"/>
<path d="M6.2722 3.19995C4.5762 3.19995 3.2002 4.57595 3.2002 6.27195C3.2002 7.96795 4.5762 9.37595 6.2722 9.37595C7.9682 9.37595 9.3442 7.96795 9.3442 6.27195C9.3442 4.57595 7.9682 3.19995 6.2722 3.19995Z" fill="#2080E2"/>
</svg>
