<svg width="32" height="32" viewBox="0 0 32 32" fill="none" xmlns="http://www.w3.org/2000/svg">
<path d="M18.0497 16C18.0497 21.0185 14.0092 25.0868 9.02487 25.0868C4.04056 25.0868 0 21.0185 0 16C0 10.9815 4.04056 6.91321 9.02487 6.91321C14.0091 6.91321 18.0497 10.9815 18.0497 16Z" fill="#2080E2"/>
<path d="M27.9502 16C27.9502 20.7241 25.9299 24.5537 23.4377 24.5537C20.9456 24.5537 18.9253 20.7241 18.9253 16C18.9253 11.276 20.9456 7.44641 23.4377 7.44641C25.9299 7.44641 27.9502 11.276 27.9502 16Z" fill="#2080E2"/>
<path d="M32.0002 16C32.0002 20.2326 31.2897 23.6637 30.4132 23.6637C29.5366 23.6637 28.8262 20.2326 28.8262 16C28.8262 11.7674 29.5366 8.3363 30.4132 8.3363C31.2897 8.3363 32.0002 11.7674 32.0002 16Z" fill="#2080E2"/>
</svg>
