<svg width="32" height="32" viewBox="0 0 32 32" fill="none" xmlns="http://www.w3.org/2000/svg">
<path d="M10.1036 29.119C22.0993 29.119 28.6593 19.1888 28.6593 10.5777C28.6593 10.2956 28.6536 10.0149 28.6409 9.73535C29.9143 8.81551 31.0211 7.66763 31.894 6.36091C30.7255 6.87991 29.468 7.22929 28.1489 7.38683C29.4953 6.58007 30.529 5.30386 31.0167 3.78249C29.7567 4.52891 28.3612 5.07141 26.8755 5.3643C25.6854 4.09766 23.9911 3.30542 22.1151 3.30542C18.5136 3.30542 15.593 6.22379 15.593 9.82109C15.593 10.3325 15.6502 10.8299 15.7621 11.307C10.3419 11.0345 5.53558 8.44137 2.31894 4.49841C1.75885 5.46144 1.4359 6.5801 1.4359 7.77373C1.4359 10.0346 2.58726 12.0305 4.33809 13.1981C3.26811 13.1651 2.26299 12.8716 1.38449 12.3831C1.38353 12.4104 1.38352 12.4371 1.38352 12.4663C1.38352 15.6222 3.63153 18.2572 6.61563 18.8543C6.06762 19.0035 5.49104 19.0836 4.89595 19.0836C4.47637 19.0836 4.06757 19.0423 3.67024 18.9661C4.50051 21.5553 6.90811 23.4395 9.76251 23.4922C7.5304 25.2403 4.71856 26.2815 1.66257 26.2815C1.13681 26.2815 0.617408 26.2517 0.106934 26.1913C2.99323 28.0399 6.42043 29.1186 10.104 29.1186" fill="#2080E2"/>
</svg>
