<svg width="21" height="20" viewBox="0 0 21 20" fill="none" xmlns="http://www.w3.org/2000/svg">
<path d="M18.8813 4.35827L12.7363 1.43077C11.3836 0.622805 9.70002 0.608469 8.33377 1.39327L2.11963 4.35827C2.09631 4.36995 2.07213 4.38245 2.04963 4.39577C0.574938 5.23897 0.0629846 7.118 0.906188 8.59268C1.19201 9.0926 1.61244 9.50221 2.11963 9.77495L3.83381 10.5916V14.6749C3.83482 16.5008 5.02291 18.114 6.76631 18.6566C7.97955 19.0076 9.23756 19.1794 10.5005 19.1666C11.7632 19.1808 13.0212 19.0104 14.2347 18.6608C15.9781 18.1182 17.1662 16.505 17.1672 14.6791V10.5899L18.8338 9.79327V16.6666C18.8338 17.1268 19.2069 17.4999 19.6672 17.4999C20.1274 17.4999 20.5005 17.1268 20.5005 16.6666V6.66659C20.506 5.68804 19.7334 4.78405 18.8813 4.35827ZM15.5005 14.6791C15.5009 15.7713 14.7923 16.7373 13.7505 17.0649C12.694 17.3668 11.5992 17.5133 10.5004 17.4999C9.40174 17.5133 8.30693 17.3668 7.25045 17.0649C6.20861 16.7373 5.50002 15.7713 5.50045 14.6791V11.3858L8.26463 12.7025C8.94666 13.1075 9.72561 13.3203 10.5188 13.3183C11.2738 13.3237 12.0161 13.1238 12.6663 12.74L15.5005 11.3858V14.6791ZM18.1671 8.27077L11.8821 11.2708C11.0058 11.781 9.91959 11.7666 9.05713 11.2333L2.90795 8.30827C2.22252 7.93866 1.9665 7.08339 2.33611 6.398C2.46111 6.1662 2.64853 5.97405 2.87713 5.84327L9.12295 2.85995C9.99955 2.35081 11.0852 2.36523 11.9479 2.89745L18.093 5.82495C18.5449 6.07589 18.8276 6.54975 18.8338 7.06663C18.8346 7.55624 18.5825 8.01155 18.1671 8.27077Z" fill="white"/>
</svg>
