<svg width="64" height="60" viewBox="0 0 64 60" fill="none" xmlns="http://www.w3.org/2000/svg">
<path d="M55.5546 55.974C55.5546 53.75 57.3572 51.948 59.582 51.948C61.8068 51.948 63.6094 53.75 63.6094 55.974C63.6094 58.1981 61.8068 60 59.582 60C57.3572 60 55.5546 58.1981 55.5546 55.974Z" fill="#0056D2"/>
<path d="M55.5546 42.987C55.5546 40.763 57.3572 38.961 59.582 38.961C61.8068 38.961 63.6094 40.763 63.6094 42.987C63.6094 45.211 61.8068 47.0129 59.582 47.0129C57.3572 47.0129 55.5546 45.211 55.5546 42.987Z" fill="#0056D2"/>
<path d="M55.5546 29.9999C55.5546 27.7759 57.3572 25.9739 59.582 25.9739C61.8068 25.9739 63.6094 27.7759 63.6094 29.9999C63.6094 32.2239 61.8068 34.0259 59.582 34.0259C57.3572 34.0259 55.5546 32.2239 55.5546 29.9999Z" fill="#0056D2"/>
<path d="M55.5546 17.0131C55.5546 14.7891 57.3572 12.9871 59.582 12.9871C61.8068 12.9871 63.6094 14.7891 63.6094 17.0131C63.6094 19.2371 61.8068 21.0391 59.582 21.0391C57.3572 21.0391 55.5546 19.2371 55.5546 17.0131Z" fill="#0056D2"/>
<path d="M55.5546 4.02604C55.5546 1.80201 57.3572 4.86374e-05 59.582 4.86374e-05C61.8068 4.86374e-05 63.6094 1.80201 63.6094 4.02604C63.6094 6.25006 61.8068 8.052 59.582 8.052C57.3572 8.052 55.5546 6.25006 55.5546 4.02604Z" fill="#0056D2"/>
<path d="M41.6699 55.974C41.6699 53.75 43.4724 51.948 45.6972 51.948C47.922 51.948 49.7246 53.75 49.7246 55.974C49.7246 58.1981 47.922 60 45.6972 60C43.4724 60 41.6699 58.1981 41.6699 55.974Z" fill="#0056D2"/>
<path d="M41.6699 42.987C41.6699 40.763 43.4724 38.961 45.6972 38.961C47.922 38.961 49.7246 40.763 49.7246 42.987C49.7246 45.211 47.922 47.0129 45.6972 47.0129C43.4724 47.0129 41.6699 45.211 41.6699 42.987Z" fill="#0056D2"/>
<path d="M41.6699 29.9999C41.6699 27.7759 43.4724 25.9739 45.6972 25.9739C47.922 25.9739 49.7246 27.7759 49.7246 29.9999C49.7246 32.2239 47.922 34.0259 45.6972 34.0259C43.4724 34.0259 41.6699 32.2239 41.6699 29.9999Z" fill="#0056D2"/>
<path d="M45.6972 12.9871C43.473 12.9871 41.6699 14.7896 41.6699 17.0131C41.6699 19.2366 43.473 21.0391 45.6972 21.0391C47.9215 21.0391 49.7246 19.2366 49.7246 17.0131C49.7246 14.7896 47.9215 12.9871 45.6972 12.9871Z" fill="#0056D2"/>
<path d="M27.7851 55.974C27.7851 53.75 29.5877 51.948 31.8125 51.948C34.0373 51.948 35.8398 53.75 35.8398 55.974C35.8398 58.1981 34.0373 60 31.8125 60C29.5877 60 27.7851 58.1981 27.7851 55.974Z" fill="#0056D2"/>
<path d="M27.7851 42.987C27.7851 40.763 29.5877 38.961 31.8125 38.961C34.0373 38.961 35.8398 40.763 35.8398 42.987C35.8398 45.211 34.0373 47.0129 31.8125 47.0129C29.5877 47.0129 27.7851 45.211 27.7851 42.987Z" fill="#0056D2"/>
<path d="M27.7851 29.9999C27.7851 27.7759 29.5877 25.9739 31.8125 25.9739C34.0373 25.9739 35.8398 27.7759 35.8398 29.9999C35.8398 32.2239 34.0373 34.0259 31.8125 34.0259C29.5877 34.0259 27.7851 32.2239 27.7851 29.9999Z" fill="#0056D2"/>
<path d="M13.9003 55.974C13.9003 53.75 15.7029 51.948 17.9277 51.948C20.1525 51.948 21.9551 53.75 21.9551 55.974C21.9551 58.1981 20.1525 60 17.9277 60C15.7029 60 13.9003 58.1981 13.9003 55.974Z" fill="#0056D2"/>
<path d="M13.9003 42.987C13.9003 40.763 15.7029 38.961 17.9277 38.961C20.1525 38.961 21.9551 40.763 21.9551 42.987C21.9551 45.211 20.1525 47.0129 17.9277 47.0129C15.7029 47.0129 13.9003 45.211 13.9003 42.987Z" fill="#0056D2"/>
<path d="M-4.1008e-05 55.974C-4.1008e-05 53.75 1.80253 51.948 4.02732 51.948C6.25212 51.948 8.05469 53.75 8.05469 55.974C8.05469 58.1981 6.25212 60 4.02732 60C1.81876 60 -4.1008e-05 58.1981 -4.1008e-05 55.974Z" fill="#0056D2"/>
</svg>
