<svg width="64" height="60" viewBox="0 0 64 60" fill="none" xmlns="http://www.w3.org/2000/svg">
<path d="M8.05475 55.974C8.05475 53.75 6.25216 51.948 4.02736 51.948C1.80257 51.948 0 53.75 0 55.974C0 58.1981 1.80257 60 4.02736 60C6.25216 60 8.05475 58.1981 8.05475 55.974Z" fill="#0056D2"/>
<path d="M8.05475 42.987C8.05475 40.763 6.25216 38.961 4.02736 38.961C1.80257 38.961 0 40.763 0 42.987C0 45.211 1.80257 47.0129 4.02736 47.0129C6.25216 47.0129 8.05475 45.211 8.05475 42.987Z" fill="#0056D2"/>
<path d="M8.05475 30C8.05475 27.776 6.25216 25.974 4.02736 25.974C1.80257 25.974 0 27.776 0 30C0 32.2241 1.80257 34.026 4.02736 34.026C6.25216 34.026 8.05475 32.2241 8.05475 30Z" fill="#0056D2"/>
<path d="M8.05475 17.013C8.05475 14.789 6.25216 12.987 4.02736 12.987C1.80257 12.987 0 14.789 0 17.013C0 19.237 1.80257 21.0389 4.02736 21.0389C6.25216 21.0389 8.05475 19.237 8.05475 17.013Z" fill="#0056D2"/>
<path d="M8.05475 4.02604C8.05475 1.80201 6.25216 4.86374e-05 4.02736 4.86374e-05C1.80257 4.86374e-05 0 1.80201 0 4.02604C0 6.25006 1.80257 8.052 4.02736 8.052C6.25216 8.052 8.05475 6.25006 8.05475 4.02604Z" fill="#0056D2"/>
<path d="M21.9395 55.974C21.9395 53.75 20.1369 51.948 17.9121 51.948C15.6873 51.948 13.8848 53.75 13.8848 55.974C13.8848 58.1981 15.6873 60 17.9121 60C20.1369 60 21.9395 58.1981 21.9395 55.974Z" fill="#0056D2"/>
<path d="M21.9395 42.987C21.9395 40.763 20.1369 38.961 17.9121 38.961C15.6873 38.961 13.8848 40.763 13.8848 42.987C13.8848 45.211 15.6873 47.0129 17.9121 47.0129C20.1369 47.0129 21.9395 45.211 21.9395 42.987Z" fill="#0056D2"/>
<path d="M21.9395 30C21.9395 27.776 20.1369 25.974 17.9121 25.974C15.6873 25.974 13.8848 27.776 13.8848 30C13.8848 32.2241 15.6873 34.026 17.9121 34.026C20.1369 34.026 21.9395 32.2241 21.9395 30Z" fill="#0056D2"/>
<path d="M17.9121 12.987C20.1364 12.987 21.9395 14.7895 21.9395 17.013C21.9395 19.2365 20.1364 21.0389 17.9121 21.0389C15.6879 21.0389 13.8848 19.2365 13.8848 17.013C13.8848 14.7895 15.6879 12.987 17.9121 12.987Z" fill="#0056D2"/>
<path d="M35.8243 55.974C35.8243 53.75 34.0217 51.948 31.7969 51.948C29.5721 51.948 27.7695 53.75 27.7695 55.974C27.7695 58.1981 29.5721 60 31.7969 60C34.0217 60 35.8243 58.1981 35.8243 55.974Z" fill="#0056D2"/>
<path d="M35.8243 42.987C35.8243 40.763 34.0217 38.961 31.7969 38.961C29.5721 38.961 27.7695 40.763 27.7695 42.987C27.7695 45.211 29.5721 47.0129 31.7969 47.0129C34.0217 47.0129 35.8243 45.211 35.8243 42.987Z" fill="#0056D2"/>
<path d="M35.8243 30C35.8243 27.776 34.0217 25.974 31.7969 25.974C29.5721 25.974 27.7695 27.776 27.7695 30C27.7695 32.2241 29.5721 34.026 31.7969 34.026C34.0217 34.026 35.8243 32.2241 35.8243 30Z" fill="#0056D2"/>
<path d="M49.709 55.974C49.709 53.75 47.9065 51.948 45.6817 51.948C43.4569 51.948 41.6543 53.75 41.6543 55.974C41.6543 58.1981 43.4569 60 45.6817 60C47.9065 60 49.709 58.1981 49.709 55.974Z" fill="#0056D2"/>
<path d="M49.709 42.987C49.709 40.763 47.9065 38.961 45.6817 38.961C43.4569 38.961 41.6543 40.763 41.6543 42.987C41.6543 45.211 43.4569 47.0129 45.6817 47.0129C47.9065 47.0129 49.709 45.211 49.709 42.987Z" fill="#0056D2"/>
<path d="M63.6094 55.974C63.6094 53.75 61.8068 51.948 59.5821 51.948C57.3573 51.948 55.5547 53.75 55.5547 55.974C55.5547 58.1981 57.3573 60 59.5821 60C61.7906 60 63.6094 58.1981 63.6094 55.974Z" fill="#0056D2"/>
</svg>
