<svg width="116" height="116" viewBox="0 0 116 116" fill="none" xmlns="http://www.w3.org/2000/svg">
<path fill-rule="evenodd" clip-rule="evenodd" d="M94.25 64.5558H21.75V98.1088C21.75 99.7093 22.7994 101.121 24.3328 101.582C31.6173 103.766 52.1021 109.912 56.9578 111.369C57.6375 111.572 58.3625 111.572 59.0422 111.369C63.8979 109.912 84.3828 103.766 91.6672 101.582C93.2006 101.121 94.25 99.7093 94.25 98.1088C94.25 89.7061 94.25 64.5558 94.25 64.5558Z" fill="url(#paint0_linear_755_9453)"/>
<path fill-rule="evenodd" clip-rule="evenodd" d="M94.25 64.5558H58C58 64.5558 57.6484 111.521 58 111.521C58.3517 111.521 58.7015 111.471 59.0422 111.369C63.8979 109.912 84.3828 103.766 91.6672 101.582C93.2006 101.121 94.25 99.7093 94.25 98.1088C94.25 89.7061 94.25 64.5558 94.25 64.5558Z" fill="url(#paint1_linear_755_9453)"/>
<path fill-rule="evenodd" clip-rule="evenodd" d="M58.0002 76.3171L21.7502 64.5558C21.7502 64.5558 15.3938 73.9808 12.5518 78.1931C12.2328 78.6661 12.1548 79.2588 12.3397 79.7971C12.5264 80.3354 12.9523 80.7541 13.4943 80.9318C20.38 83.1684 40.7633 89.7913 46.1102 91.5276C46.8769 91.7778 47.7179 91.4896 48.171 90.8208C50.6016 87.2338 58.0002 76.3171 58.0002 76.3171Z" fill="url(#paint2_linear_755_9453)"/>
<path fill-rule="evenodd" clip-rule="evenodd" d="M94.25 64.5558L58 76.3171C58 76.3171 65.3986 87.2338 67.8292 90.8208C68.2823 91.4896 69.1233 91.7778 69.89 91.5276C75.2369 89.7913 95.6202 83.1684 102.506 80.9318C103.048 80.7541 103.474 80.3354 103.66 79.7971C103.845 79.2588 103.767 78.6661 103.448 78.1931C100.606 73.9808 94.25 64.5558 94.25 64.5558Z" fill="url(#paint3_linear_755_9453)"/>
<path fill-rule="evenodd" clip-rule="evenodd" d="M49.2257 39.8496C48.7726 39.1844 47.9334 38.8962 47.1667 39.1464C41.8235 40.8809 21.4347 47.5056 14.549 49.7441C14.007 49.9199 13.5793 50.3386 13.3944 50.8769C13.2095 51.4152 13.2875 52.0097 13.6065 52.4809C16.2237 56.3633 21.75 64.5558 21.75 64.5558L58 52.7546C58 52.7546 51.4895 43.1792 49.2257 39.8496Z" fill="url(#paint4_linear_755_9453)"/>
<path fill-rule="evenodd" clip-rule="evenodd" d="M102.394 52.4809C102.713 52.0097 102.791 51.4152 102.606 50.8769C102.421 50.3386 101.993 49.9199 101.451 49.7441C94.5654 47.5056 74.1766 40.8809 68.8333 39.1464C68.0666 38.8962 67.2274 39.1844 66.7743 39.8496C64.5105 43.1792 58 52.7546 58 52.7546L94.25 64.5558C94.25 64.5558 99.7763 56.3633 102.394 52.4809Z" fill="url(#paint5_linear_755_9453)"/>
<path fill-rule="evenodd" clip-rule="evenodd" d="M94.25 64.5558L58 52.7546L21.75 64.5558L58 76.3171L94.25 64.5558Z" fill="url(#paint6_linear_755_9453)"/>
<path fill-rule="evenodd" clip-rule="evenodd" d="M58 76.3171V52.7546L21.75 64.5558L58 76.3171Z" fill="url(#paint7_linear_755_9453)"/>
<path fill-rule="evenodd" clip-rule="evenodd" d="M50.7184 57.9602C49.9644 57.4672 49.2847 56.9397 48.6812 56.3869C47.9453 55.7108 46.798 55.7598 46.1201 56.4975C45.4441 57.2333 45.493 58.3807 46.2307 59.0567C46.972 59.7382 47.8076 60.3871 48.7356 60.9943C49.5729 61.5417 50.6967 61.306 51.2441 60.4686C51.7914 59.6313 51.5558 58.5075 50.7184 57.9602Z" fill="url(#paint8_linear_755_9453)"/>
<path fill-rule="evenodd" clip-rule="evenodd" d="M45.0706 52.3921C44.5323 51.6617 44.0774 50.9276 43.704 50.1936C43.2509 49.3018 42.158 48.9466 41.2662 49.3997C40.3745 49.8528 40.0192 50.9458 40.4723 51.8375C40.9327 52.7401 41.491 53.6446 42.1525 54.5418C42.7452 55.3465 43.8798 55.5187 44.6864 54.926C45.4911 54.3315 45.6633 53.1969 45.0706 52.3921Z" fill="url(#paint9_linear_755_9453)"/>
<path fill-rule="evenodd" clip-rule="evenodd" d="M42.4204 44.9953C42.4386 44.2649 42.5455 43.5562 42.7412 42.8765C43.0167 41.9159 42.4603 40.91 41.4979 40.6345C40.5373 40.359 39.5313 40.9154 39.2558 41.8778C38.9785 42.8493 38.8226 43.8625 38.7954 44.9047C38.7719 45.9052 39.5621 46.7371 40.5626 46.7607C41.5631 46.7861 42.3951 45.9958 42.4204 44.9953Z" fill="url(#paint10_linear_755_9453)"/>
<path fill-rule="evenodd" clip-rule="evenodd" d="M45.2077 38.9416C45.6735 38.5102 46.1955 38.1114 46.7664 37.7507C47.6129 37.2161 47.8666 36.0959 47.3337 35.2513C46.799 34.4049 45.6789 34.1511 44.8325 34.684C44.0658 35.1679 43.3698 35.7026 42.7445 36.2826C42.0104 36.9623 41.9669 38.1096 42.6466 38.8437C43.3263 39.5777 44.4736 39.6213 45.2077 38.9416Z" fill="url(#paint11_linear_755_9453)"/>
<path fill-rule="evenodd" clip-rule="evenodd" d="M51.949 35.815C52.8607 35.6464 53.8267 35.5377 54.8454 35.496C55.8459 35.4525 56.6216 34.6061 56.5799 33.6074C56.5382 32.6087 55.6918 31.8311 54.6913 31.8728C53.495 31.9236 52.3604 32.0523 51.2892 32.2498C50.3069 32.4329 49.6544 33.379 49.8374 34.3614C50.0187 35.3456 50.9648 35.9963 51.949 35.815Z" fill="url(#paint12_linear_755_9453)"/>
<path fill-rule="evenodd" clip-rule="evenodd" d="M61.3954 35.7081C62.9415 35.7262 64.3806 35.6718 65.7164 35.554C66.7133 35.4652 67.451 34.5843 67.3621 33.5875C67.2733 32.5924 66.3925 31.8547 65.3956 31.9435C64.1721 32.0505 62.8545 32.1012 61.4371 32.0831C60.4366 32.0722 59.6155 32.8752 59.6046 33.8738C59.592 34.8743 60.3949 35.6972 61.3954 35.7081Z" fill="url(#paint13_linear_755_9453)"/>
<path fill-rule="evenodd" clip-rule="evenodd" d="M71.674 34.443C73.4684 33.8938 74.9837 33.1905 76.2524 32.384C77.0952 31.8457 77.3453 30.7255 76.807 29.8809C76.2705 29.0381 75.1486 28.788 74.304 29.3263C73.2835 29.9752 72.0601 30.5334 70.6137 30.9757C69.6585 31.2693 69.1184 32.2825 69.412 33.2395C69.7039 34.1965 70.7188 34.7348 71.674 34.443Z" fill="url(#paint14_linear_755_9453)"/>
<path fill-rule="evenodd" clip-rule="evenodd" d="M80.9001 27.3108C81.7556 25.5418 82.0837 23.6713 82.0003 21.8678C81.9532 20.8673 81.1031 20.0952 80.1045 20.1423C79.1058 20.1895 78.3318 21.0377 78.379 22.0364C78.437 23.2616 78.2158 24.5322 77.6358 25.7339C77.2008 26.6347 77.5778 27.7204 78.4786 28.1554C79.3795 28.5904 80.4651 28.2116 80.9001 27.3108Z" fill="url(#paint15_linear_755_9453)"/>
<path fill-rule="evenodd" clip-rule="evenodd" d="M79.745 15.4588C78.4237 13.6735 76.6312 12.4301 74.6773 12.0296C73.6967 11.8302 72.7379 12.4609 72.5367 13.4415C72.3373 14.4221 72.9699 15.3809 73.9487 15.5821C75.076 15.8123 76.0693 16.5862 76.8323 17.6175C77.4287 18.4204 78.5651 18.589 79.368 17.9945C80.1728 17.3982 80.3413 16.2618 79.745 15.4588Z" fill="url(#paint16_linear_755_9453)"/>
<path fill-rule="evenodd" clip-rule="evenodd" d="M56.0664 12.3812C58.0275 1.27601 75.0233 1.99376 65.1289 12.3812H56.0664Z" fill="url(#paint17_linear_755_9453)"/>
<path fill-rule="evenodd" clip-rule="evenodd" d="M56.0664 15.1942C58.0275 26.2976 75.0233 25.5816 65.1289 15.1942H56.0664Z" fill="url(#paint18_linear_755_9453)"/>
<path fill-rule="evenodd" clip-rule="evenodd" d="M55.9033 15.6183H68.0398C69.0403 15.6183 69.8523 14.8063 69.8523 13.8058C69.8523 12.8053 69.0403 11.9933 68.0398 11.9933H55.9033C54.9046 11.9933 54.0908 12.8053 54.0908 13.8058C54.0908 14.8063 54.9046 15.6183 55.9033 15.6183Z" fill="url(#paint19_linear_755_9453)"/>
<defs>
<linearGradient id="paint0_linear_755_9453" x1="21.75" y1="88.0386" x2="94.25" y2="88.0386" gradientUnits="userSpaceOnUse">
<stop stop-color="#CADCF0"/>
<stop offset="1" stop-color="#A4BBDB"/>
</linearGradient>
<linearGradient id="paint1_linear_755_9453" x1="57.8442" y1="88.0386" x2="94.25" y2="88.0386" gradientUnits="userSpaceOnUse">
<stop stop-color="#A4BBDB"/>
<stop offset="1" stop-color="#8DA3BE"/>
</linearGradient>
<linearGradient id="paint2_linear_755_9453" x1="21.9913" y1="64.5413" x2="27.0577" y2="98.0606" gradientUnits="userSpaceOnUse">
<stop stop-color="#E9F3FC"/>
<stop offset="1" stop-color="#CADCF0"/>
</linearGradient>
<linearGradient id="paint3_linear_755_9453" x1="58.1468" y1="76.1939" x2="96.361" y2="98.1721" gradientUnits="userSpaceOnUse">
<stop stop-color="#E9F3FC"/>
<stop offset="1" stop-color="#CADCF0"/>
</linearGradient>
<linearGradient id="paint4_linear_755_9453" x1="17.0049" y1="57.5215" x2="22.4733" y2="31.7436" gradientUnits="userSpaceOnUse">
<stop stop-color="#E9F3FC"/>
<stop offset="1" stop-color="#CADCF0"/>
</linearGradient>
<linearGradient id="paint5_linear_755_9453" x1="67.7041" y1="38.7096" x2="69.6595" y2="70.5275" gradientUnits="userSpaceOnUse">
<stop stop-color="#E9F3FC"/>
<stop offset="1" stop-color="#CADCF0"/>
</linearGradient>
<linearGradient id="paint6_linear_755_9453" x1="21.75" y1="64.5359" x2="94.25" y2="64.5359" gradientUnits="userSpaceOnUse">
<stop stop-color="#CADCF0"/>
<stop offset="1" stop-color="#A4BBDB"/>
</linearGradient>
<linearGradient id="paint7_linear_755_9453" x1="61.712" y1="52.2272" x2="62.4932" y2="81.5045" gradientUnits="userSpaceOnUse">
<stop stop-color="#A4BBDB"/>
<stop offset="1" stop-color="#8DA3BE"/>
</linearGradient>
<linearGradient id="paint8_linear_755_9453" x1="38.0472" y1="12.3812" x2="73.797" y2="54.5635" gradientUnits="userSpaceOnUse">
<stop stop-color="#559AFF"/>
<stop offset="1" stop-color="#2E69EF"/>
</linearGradient>
<linearGradient id="paint9_linear_755_9453" x1="38.0472" y1="12.3812" x2="73.797" y2="54.5635" gradientUnits="userSpaceOnUse">
<stop stop-color="#559AFF"/>
<stop offset="1" stop-color="#2E69EF"/>
</linearGradient>
<linearGradient id="paint10_linear_755_9453" x1="38.0469" y1="12.3812" x2="73.7966" y2="54.5635" gradientUnits="userSpaceOnUse">
<stop stop-color="#559AFF"/>
<stop offset="1" stop-color="#2E69EF"/>
</linearGradient>
<linearGradient id="paint11_linear_755_9453" x1="38.0465" y1="12.3812" x2="73.7962" y2="54.5635" gradientUnits="userSpaceOnUse">
<stop stop-color="#559AFF"/>
<stop offset="1" stop-color="#2E69EF"/>
</linearGradient>
<linearGradient id="paint12_linear_755_9453" x1="38.0471" y1="12.3812" x2="73.7969" y2="54.5635" gradientUnits="userSpaceOnUse">
<stop stop-color="#559AFF"/>
<stop offset="1" stop-color="#2E69EF"/>
</linearGradient>
<linearGradient id="paint13_linear_755_9453" x1="38.0468" y1="12.3812" x2="73.7965" y2="54.5636" gradientUnits="userSpaceOnUse">
<stop stop-color="#559AFF"/>
<stop offset="1" stop-color="#2E69EF"/>
</linearGradient>
<linearGradient id="paint14_linear_755_9453" x1="38.0467" y1="12.3812" x2="73.7965" y2="54.5635" gradientUnits="userSpaceOnUse">
<stop stop-color="#559AFF"/>
<stop offset="1" stop-color="#2E69EF"/>
</linearGradient>
<linearGradient id="paint15_linear_755_9453" x1="38.0472" y1="12.3812" x2="73.7969" y2="54.5635" gradientUnits="userSpaceOnUse">
<stop stop-color="#559AFF"/>
<stop offset="1" stop-color="#2E69EF"/>
</linearGradient>
<linearGradient id="paint16_linear_755_9453" x1="38.0466" y1="12.3812" x2="73.7964" y2="54.5635" gradientUnits="userSpaceOnUse">
<stop stop-color="#559AFF"/>
<stop offset="1" stop-color="#2E69EF"/>
</linearGradient>
<linearGradient id="paint17_linear_755_9453" x1="56.0664" y1="8.35019" x2="68.2011" y2="8.35019" gradientUnits="userSpaceOnUse">
<stop stop-color="#E9F3FC"/>
<stop offset="1" stop-color="#CADCF0"/>
</linearGradient>
<linearGradient id="paint18_linear_755_9453" x1="56.0664" y1="19.2252" x2="68.2011" y2="19.2252" gradientUnits="userSpaceOnUse">
<stop stop-color="#E9F3FC"/>
<stop offset="1" stop-color="#CADCF0"/>
</linearGradient>
<linearGradient id="paint19_linear_755_9453" x1="38.0466" y1="12.3812" x2="73.7963" y2="54.5635" gradientUnits="userSpaceOnUse">
<stop stop-color="#559AFF"/>
<stop offset="1" stop-color="#2E69EF"/>
</linearGradient>
</defs>
</svg>
