<svg width="314" height="691" viewBox="0 0 314 691" fill="none" xmlns="http://www.w3.org/2000/svg">
<g clip-path="url(#clip0_750_10227)">
<path d="M253.178 323.909C269.066 298.577 302.578 287.012 332.527 297.596L333.351 297.901L333.417 297.925L333.485 297.948C333.653 298.006 333.826 298.072 334.132 298.188C334.132 298.188 334.132 298.189 334.132 298.189L432.427 335.709L432.428 335.709L481.318 354.365L408.595 383.195L312.587 346.558C312.586 346.558 312.586 346.558 312.586 346.558C312.375 346.477 312.192 346.42 312.091 346.39L253.178 323.909Z" stroke="white" stroke-width="12"/>
<path d="M204.154 574.468L204.154 574.468C202.181 579.024 204.561 584.323 209.411 586.174L211.491 580.69L209.411 586.174L425.955 668.807L404.932 717.375L187.871 634.555C187.871 634.555 187.871 634.555 187.871 634.555C154.716 621.903 138.765 586.361 152.24 555.22L240.469 351.48L292.183 371.214L204.154 574.468Z" stroke="white" stroke-width="12"/>
</g>
<defs>
<clipPath id="clip0_750_10227">
<rect width="749.691" height="716.638" fill="white" transform="matrix(0.929616 -0.36853 0.409706 0.912218 0 276.75)"/>
</clipPath>
</defs>
</svg>
