<svg width="580" height="414" viewBox="0 0 580 414" fill="none" xmlns="http://www.w3.org/2000/svg">
<g clip-path="url(#clip0_757_10004)">
<path d="M114.618 68.0831C78.3945 102.159 132.234 139.36 106.875 158.784C81.5166 178.208 -26.045 219.881 89.0295 281.14C204.104 342.4 211.875 375.286 287.985 326.786C364.097 278.286 356.151 283.151 423.038 308.225C489.926 333.297 554.846 283.274 528.216 230.662C501.586 178.05 486.93 179.682 511.032 143.406C535.134 107.127 481.771 -3.86161 395.858 75.964C309.946 155.787 327.546 103.398 286.657 67.4673C264.517 48.0135 171.862 14.2297 114.618 68.0831Z" fill="url(#paint0_linear_757_10004)"/>
<path d="M131.54 48.3918C119.532 67.3511 54.1733 180.533 149.581 260.818C149.581 260.818 211.83 197.36 134.835 48.5303C134.161 47.2271 132.323 47.1554 131.54 48.3918Z" fill="#BDD0FB"/>
<path d="M133.939 70.9787C132.819 78.0436 131.842 85.1406 130.928 92.2377C130.019 99.3372 129.189 106.449 128.445 113.568C126.956 127.807 125.784 142.078 125.053 156.371C124.334 170.661 124.032 184.976 124.513 199.264C124.731 206.409 125.209 213.54 125.957 220.637C126.716 227.729 127.756 234.797 129.352 241.731V241.735C129.466 242.23 129.156 242.725 128.661 242.838C128.165 242.952 127.67 242.643 127.556 242.148V242.143C125.98 235.101 124.976 227.964 124.255 220.815C123.544 213.664 123.11 206.49 122.935 199.316C122.541 184.967 122.935 170.617 123.74 156.304C124.56 141.989 125.821 127.706 127.402 113.462C128.193 106.34 129.065 99.2259 130.021 92.1239C130.98 85.0219 131.999 77.9323 133.168 70.8551C133.203 70.6424 133.403 70.499 133.617 70.5336C133.83 70.5682 133.973 70.7685 133.939 70.9787Z" fill="#DCE5FE"/>
<path d="M48.2182 69.2997C41.4041 96.8743 8.30974 258.951 155.133 317.263C155.133 317.263 204.443 216.159 52.2324 68.1473C50.9017 66.8516 48.6642 67.497 48.2182 69.2997Z" fill="#91B3FA"/>
<path d="M60.0624 95.5117C61.1353 104.983 62.6072 114.426 64.2624 123.823C65.9275 133.222 67.8181 142.58 69.9417 151.885C74.1962 170.491 79.3303 188.903 85.6588 206.906C92.0021 224.89 99.515 242.5 108.864 259.11C111.186 263.269 113.669 267.337 116.25 271.335C118.827 275.339 121.556 279.241 124.43 283.032C130.146 290.636 136.519 297.743 143.532 304.147L143.537 304.152C143.913 304.496 143.938 305.077 143.594 305.453C143.249 305.829 142.667 305.854 142.29 305.51H142.288C135.206 298.979 128.796 291.758 123.06 284.058C120.178 280.218 117.442 276.269 114.865 272.223C112.283 268.182 109.803 264.073 107.486 259.879C98.1571 243.12 90.6963 225.405 84.4174 207.336C78.1558 189.249 73.0935 170.772 68.9183 152.112C66.8344 142.78 64.9835 133.398 63.3605 123.976C61.7449 114.553 60.3176 105.101 59.2844 95.5859C59.2621 95.3707 59.4157 95.1803 59.6313 95.1556C59.8469 95.1333 60.0376 95.2867 60.0624 95.5018V95.5067V95.5117Z" fill="#DCE5FE"/>
<path d="M31.3714 220.669C32.7343 235.098 43.8301 318.628 118.166 319.281C118.166 319.281 123.947 261.867 32.9672 219.376C32.1718 219.005 31.2822 219.727 31.3714 220.669Z" fill="#BDD0FB"/>
<path d="M40.9761 230.922C42.9262 235.036 45.0423 239.092 47.2154 243.105C49.3909 247.119 51.6607 251.083 54.0047 255C56.3537 258.914 58.787 262.779 61.3045 266.585C63.822 270.391 66.4238 274.142 69.142 277.804C71.8577 281.466 74.6528 285.074 77.6014 288.549C80.5451 292.025 83.5731 295.436 86.7943 298.65C87.5798 299.474 88.4024 300.258 89.2251 301.044C90.0527 301.823 90.8506 302.636 91.7104 303.378L94.2502 305.651L96.8718 307.824C100.408 310.668 104.11 313.299 108.007 315.592L108.017 315.599C108.456 315.856 108.602 316.422 108.344 316.86C108.087 317.298 107.519 317.444 107.081 317.187L107.073 317.182C99.1266 312.392 92.0622 306.353 85.6669 299.756C82.4432 296.474 79.4226 293.007 76.4913 289.476C73.5551 285.947 70.7799 282.29 68.0839 278.581C65.3855 274.874 62.8086 271.081 60.3183 267.233C57.8256 263.388 55.4221 259.485 53.1053 255.536C50.7909 251.585 48.5559 247.586 46.4125 243.541C44.2717 239.49 42.1952 235.415 40.2699 231.251C40.1807 231.055 40.265 230.823 40.4607 230.734C40.6565 230.645 40.8869 230.729 40.9761 230.922V230.929V230.922Z" fill="#DCE5FE"/>
<path d="M534.336 202.833C537.852 220.227 554.164 322.283 460.952 354.761C460.952 354.761 432.88 290.334 531.861 202.007C532.725 201.235 534.106 201.698 534.336 202.833Z" fill="#91B3FA"/>
<path d="M526.868 218.968C525.978 224.89 524.833 230.751 523.582 236.597C522.326 242.44 520.926 248.251 519.382 254.025C517.836 259.8 516.144 265.534 514.303 271.224C513.832 272.643 513.388 274.07 512.893 275.482L511.421 279.721C510.388 282.527 509.377 285.344 508.257 288.118C507.186 290.913 505.994 293.66 504.832 296.417L502.994 300.515C502.394 301.887 501.708 303.22 501.068 304.573C498.449 309.959 495.639 315.263 492.473 320.362L491.301 322.283L490.062 324.162L488.82 326.042L488.201 326.982L487.542 327.896L484.903 331.551L482.103 335.087C478.282 339.734 474.112 344.113 469.513 348.035C469.126 348.367 468.544 348.32 468.212 347.934C467.88 347.548 467.927 346.967 468.313 346.636L468.318 346.631L468.328 346.623C472.853 342.82 476.983 338.552 480.779 334.004L483.567 330.54L486.199 326.952L486.855 326.054L487.475 325.129L488.714 323.28L489.955 321.43L491.13 319.536C494.304 314.513 497.128 309.271 499.77 303.942C500.414 302.602 501.105 301.284 501.713 299.924L503.571 295.866C504.748 293.133 505.955 290.411 507.04 287.636C508.175 284.884 509.201 282.087 510.251 279.3L511.748 275.092C512.251 273.689 512.704 272.27 513.185 270.861C515.063 265.208 516.793 259.503 518.376 253.756C519.96 248.012 521.399 242.225 522.695 236.406C523.984 230.59 525.17 224.737 526.1 218.862V218.854C526.134 218.642 526.335 218.496 526.548 218.53C526.761 218.563 526.905 218.763 526.873 218.973L526.868 218.968Z" fill="#DCE5FE"/>
<path d="M548.973 287.651C546.2 300.094 527.341 371.779 462.396 364.22C462.396 364.22 463.655 313.48 547.724 286.348C548.46 286.11 549.156 286.837 548.976 287.651H548.973Z" fill="#BDD0FB"/>
<path d="M540.09 295.933C537.954 299.36 535.694 302.693 533.385 305.994C531.07 309.293 528.684 312.54 526.231 315.74C523.776 318.937 521.251 322.08 518.656 325.166C516.062 328.252 513.398 331.284 510.635 334.227C507.878 337.172 505.053 340.063 502.104 342.825C499.158 345.59 496.142 348.29 492.966 350.805C486.657 355.872 479.823 360.38 472.355 363.701C471.889 363.908 471.344 363.701 471.138 363.233C470.93 362.768 471.138 362.224 471.607 362.019H471.612L471.629 362.009C478.929 358.861 485.701 354.509 491.99 349.571C495.154 347.123 498.169 344.482 501.12 341.771C504.077 339.066 506.911 336.225 509.684 333.329C512.462 330.434 515.145 327.449 517.759 324.405C520.376 321.361 522.926 318.257 525.406 315.099C527.884 311.939 530.3 308.729 532.641 305.468C534.98 302.206 537.272 298.897 539.428 295.525V295.52C539.547 295.339 539.79 295.285 539.971 295.401C540.152 295.515 540.206 295.754 540.092 295.935L540.09 295.933Z" fill="#DCE5FE"/>
<path d="M71.708 284.59H196.825V263.195H71.708C74.3866 263.195 74.3866 284.59 71.708 284.59Z" fill="url(#paint1_linear_757_10004)"/>
<path d="M196.826 279.236V269.446C196.826 265.994 194.353 263.197 191.303 263.197H72.2363C69.8377 263.197 67.8926 261.535 67.8926 259.488C67.8926 258.865 68.4823 258.36 69.2133 258.36H199.343C202.327 258.36 207.067 262.369 207.067 267.314V280.989C207.067 285.651 202.468 289.432 199.653 289.432H69.8972C68.7896 289.432 67.8926 288.665 67.8926 287.72C67.8926 285.994 69.5304 284.595 71.5499 284.595H192.093C194.705 284.595 196.823 282.198 196.823 279.241L196.826 279.236Z" fill="#7D97F4"/>
<path d="M193.354 268.044H76.04C75.7848 268.044 75.5791 267.839 75.5791 267.584C75.5791 267.329 75.7848 267.124 76.04 267.124H193.354C193.61 267.124 193.815 267.329 193.815 267.584C193.815 267.839 193.61 268.044 193.354 268.044Z" fill="#91B3FA"/>
<path d="M193.354 271.219H76.04C75.7848 271.219 75.5791 271.014 75.5791 270.759C75.5791 270.504 75.7848 270.299 76.04 270.299H193.354C193.61 270.299 193.815 270.504 193.815 270.759C193.815 271.014 193.61 271.219 193.354 271.219Z" fill="#91B3FA"/>
<path d="M193.354 274.397H76.04C75.7848 274.397 75.5791 274.191 75.5791 273.937C75.5791 273.682 75.7848 273.477 76.04 273.477H193.354C193.61 273.477 193.815 273.682 193.815 273.937C193.815 274.191 193.61 274.397 193.354 274.397Z" fill="#91B3FA"/>
<path d="M193.354 277.572H76.04C75.7848 277.572 75.5791 277.367 75.5791 277.112C75.5791 276.857 75.7848 276.652 76.04 276.652H193.354C193.61 276.652 193.815 276.857 193.815 277.112C193.815 277.367 193.61 277.572 193.354 277.572Z" fill="#91B3FA"/>
<path d="M193.354 280.747H76.04C75.7848 280.747 75.5791 280.542 75.5791 280.287C75.5791 280.032 75.7848 279.827 76.04 279.827H193.354C193.61 279.827 193.815 280.032 193.815 280.287C193.815 280.542 193.61 280.747 193.354 280.747Z" fill="#91B3FA"/>
<path d="M224.658 330.854H35.978C33.2287 330.854 31 333.078 31 335.822V367.722C31 370.465 33.2287 372.689 35.978 372.689H224.658C227.407 372.689 229.636 370.465 229.636 367.722V335.822C229.636 333.078 227.407 330.854 224.658 330.854Z" fill="#7D97F4"/>
<path d="M74.9893 335.664H55.2432C54.2524 335.664 53.4492 336.465 53.4492 337.454V366.094C53.4492 367.083 54.2524 367.885 55.2432 367.885H74.9893C75.9801 367.885 76.7833 367.083 76.7833 366.094V337.454C76.7833 336.465 75.9801 335.664 74.9893 335.664Z" fill="#91B3FA"/>
<path d="M213.805 291.751V298.957C213.805 300.193 213.158 301.37 212.035 302.179L210.925 302.978C210.013 303.635 210.204 304.852 211.29 305.292C212.006 305.582 212.139 306.383 211.545 306.825L210.145 307.864C209.228 308.544 209.226 309.733 210.14 310.416L211.146 311.165C212.013 311.813 211.988 312.948 211.094 313.569L210.013 314.316C209.265 314.835 209.139 315.752 209.729 316.398L210.323 317.048C210.749 317.513 210.98 318.084 210.98 318.668V330.045H64.5059V291.064L213.805 291.749V291.751Z" fill="#91B3FA"/>
<path d="M69.5808 300.094H208.671C208.973 300.094 209.218 299.889 209.218 299.637C209.218 299.385 208.973 299.179 208.671 299.179H69.5808C69.2785 299.179 69.0332 299.385 69.0332 299.637C69.0332 299.889 69.2785 300.094 69.5808 300.094Z" fill="url(#paint2_linear_757_10004)"/>
<path d="M69.5808 306.88H205.378C205.68 306.88 205.925 306.675 205.925 306.422C205.925 306.17 205.68 305.965 205.378 305.965H69.5808C69.2785 305.965 69.0332 306.17 69.0332 306.422C69.0332 306.675 69.2785 306.88 69.5808 306.88Z" fill="url(#paint3_linear_757_10004)"/>
<path d="M69.5808 311.875H203.69C203.993 311.875 204.238 311.67 204.238 311.417C204.238 311.165 203.993 310.96 203.69 310.96H69.5808C69.2785 310.96 69.0332 311.165 69.0332 311.417C69.0332 311.67 69.2785 311.875 69.5808 311.875Z" fill="url(#paint4_linear_757_10004)"/>
<path d="M61.8495 288.581H217.008C218.19 288.581 219.246 289.3 219.357 290.28C219.486 291.402 218.428 292.347 217.105 292.347H73.2352C70.7078 292.347 68.5248 293.818 67.9995 295.873C65.6455 305.087 65.8239 314.677 68.0416 324.573C68.5546 326.868 70.968 328.532 73.7754 328.532H214.166C215.348 328.532 216.404 329.252 216.515 330.231C216.644 331.353 215.586 332.298 214.263 332.298H62.8778C59.2576 332.298 56.1405 330.149 55.4962 327.187C52.8821 315.181 52.6541 303.658 55.4962 292.755C56.133 290.312 58.762 288.581 61.7677 288.581H61.8519H61.8495Z" fill="url(#paint5_linear_757_10004)"/>
<path d="M481.158 347.659C481.158 351.522 478.246 354.685 474.688 354.685H124.819C121.26 354.685 118.349 351.524 118.349 347.659L115.438 129.155C115.438 125.292 119.625 117.747 127.302 118.316L469.232 108.702C473.697 108.576 478.013 110.443 481.175 113.868C484.337 117.292 486.067 121.976 485.962 126.823L481.158 347.659Z" fill="url(#paint6_linear_757_10004)"/>
<path d="M474.77 340.921C474.77 344.581 472.015 347.573 468.65 347.573H133.256C129.889 347.573 127.136 344.578 127.136 340.921L124.388 142.56C124.712 130.624 134.341 126.333 140.179 126.585C140.179 126.585 407.429 118.793 467.889 117.03C471.026 116.939 474.059 118.252 476.279 120.66C478.502 123.069 479.723 126.365 479.644 129.773L474.77 340.918V340.921Z" fill="url(#paint7_linear_757_10004)"/>
<path d="M130.761 246.172C130.508 246.172 130.303 245.969 130.3 245.717L130.082 229.631C130.08 229.376 130.283 229.168 130.538 229.164C130.788 229.154 131.001 229.364 131.006 229.619L131.224 245.704C131.227 245.959 131.024 246.167 130.768 246.172H130.761Z" fill="url(#paint8_linear_757_10004)"/>
<path d="M130.228 206.75C129.975 206.75 129.77 206.547 129.767 206.295L128.935 144.682C128.952 140.389 130.23 137.006 132.731 134.622C136.881 130.666 143.041 130.876 143.299 130.886L247.951 127.834C248.219 127.822 248.42 128.027 248.425 128.282C248.432 128.536 248.231 128.747 247.976 128.754L143.296 131.806C143.014 131.796 137.238 131.6 133.367 135.29C131.056 137.496 129.874 140.653 129.856 144.679L130.689 206.282C130.691 206.537 130.488 206.745 130.233 206.75H130.226H130.228Z" fill="url(#paint9_linear_757_10004)"/>
<g opacity="0.58">
<path opacity="0.58" d="M141.911 329.917C142.263 313.522 142.132 168.342 141.267 155.804C140.402 143.267 158.369 140.913 185.958 139.503C213.544 138.091 446.31 132.505 452.304 131.979C465.776 130.792 468.563 152.674 467.215 200.179C466.202 235.87 464.524 294.664 463.751 321.702C463.521 329.754 457.467 336.141 450.056 336.163C394.044 336.331 179.362 336.999 165.072 337.461C148.626 337.993 141.775 336.42 141.914 329.919L141.911 329.917Z" fill="#7D97F4"/>
</g>
<path d="M507.681 353.624H98.9204C97.8927 353.624 97.0596 354.455 97.0596 355.481V370.966C97.0596 371.991 97.8927 372.823 98.9204 372.823H507.681C508.709 372.823 509.542 371.991 509.542 370.966V355.481C509.542 354.455 508.709 353.624 507.681 353.624Z" fill="url(#paint10_linear_757_10004)"/>
<path d="M439.012 310.114H170.198C166.325 310.114 163.29 306.917 163.29 302.834V165.063C163.29 161.071 166.303 157.889 170.149 157.817L438.925 152.827C440.811 152.8 442.607 153.529 443.973 154.907C445.318 156.264 446.089 158.146 446.089 160.072V302.832C446.089 306.845 442.912 310.112 439.009 310.112L439.012 310.114ZM170.166 158.737C166.826 158.799 164.212 161.576 164.212 165.06V302.832C164.212 306.398 166.841 309.192 170.196 309.192H439.012C442.407 309.192 445.169 306.338 445.169 302.832V160.072C445.169 158.388 444.495 156.742 443.318 155.555C442.134 154.36 440.585 153.725 438.943 153.747L170.166 158.737Z" fill="url(#paint11_linear_757_10004)"/>
<path d="M337.476 177.212H180.067C177.213 177.212 174.898 179.521 174.898 182.37V275.888C174.898 278.737 177.213 281.046 180.067 281.046H337.476C340.331 281.046 342.645 278.737 342.645 275.888V182.37C342.645 179.521 340.331 177.212 337.476 177.212Z" fill="url(#paint12_linear_757_10004)"/>
<path d="M417.492 211.577H360.484C356.772 211.577 353.865 208.661 353.865 204.937V183.287C353.865 179.623 356.772 176.752 360.484 176.752H417.492C421.417 176.752 424.859 179.806 424.859 183.287V204.937C424.859 208.473 421.417 211.577 417.492 211.577ZM360.484 177.672C357.235 177.672 354.787 180.085 354.787 183.287V204.937C354.787 207.749 356.918 210.657 360.484 210.657H417.492C420.864 210.657 423.937 207.932 423.937 204.937V183.287C423.937 180.295 420.926 177.672 417.492 177.672H360.484Z" fill="url(#paint13_linear_757_10004)"/>
<path d="M417.492 255.017H360.484C356.71 255.017 353.865 252.247 353.865 248.573V226.923C353.865 222.709 357.23 220.19 360.484 220.19H417.492C421.347 220.19 424.859 223.399 424.859 226.923V248.573C424.859 252.064 421.486 255.017 417.492 255.017ZM360.484 221.112C356.918 221.112 354.787 224.067 354.787 226.926V248.575C354.787 251.723 357.235 254.097 360.484 254.097H417.492C420.924 254.097 423.937 251.515 423.937 248.575V226.926C423.937 223.884 420.864 221.112 417.492 221.112H360.484Z" fill="url(#paint14_linear_757_10004)"/>
<path d="M417.492 298.46H360.484C356.648 298.46 353.865 295.834 353.865 292.213V270.564C353.865 267.23 356.395 263.635 360.484 263.635H417.492C421.347 263.635 424.859 266.936 424.859 270.564V292.213C424.859 295.658 421.553 298.46 417.492 298.46ZM360.484 264.555C356.965 264.555 354.787 267.673 354.787 270.564V292.213C354.787 295.299 357.183 297.54 360.484 297.54H417.492C420.986 297.54 423.937 295.102 423.937 292.213V270.564C423.937 267.475 420.805 264.555 417.492 264.555H360.484Z" fill="url(#paint15_linear_757_10004)"/>
<path d="M283.001 287.851C266.957 287.812 194.224 287.644 178.145 287.794C176.415 287.812 174.896 289.214 174.896 290.94V292.696C174.896 294.404 176.274 295.801 177.986 295.841L282.684 298.24C283.531 298.259 284.584 297.935 285.191 297.344C285.798 296.753 286.373 295.942 286.373 295.094V290.997C286.373 289.263 284.735 287.856 282.998 287.851H283.001Z" fill="#BDD0FB"/>
<path d="M445.63 168.136H163.751C163.496 168.136 163.29 167.931 163.29 167.676C163.29 167.422 163.496 167.216 163.751 167.216H445.63C445.885 167.216 446.091 167.422 446.091 167.676C446.091 167.931 445.885 168.136 445.63 168.136Z" fill="url(#paint16_linear_757_10004)"/>
<path d="M411.619 163.898H411.161C409.424 163.898 408.009 162.486 408.009 160.752V160.295C408.009 158.562 409.424 157.15 411.161 157.15H411.619C413.356 157.15 414.771 158.562 414.771 160.295V160.752C414.771 162.486 413.356 163.898 411.619 163.898ZM411.161 158.069C409.932 158.069 408.931 159.068 408.931 160.295V160.752C408.931 161.979 409.932 162.978 411.161 162.978H411.619C412.848 162.978 413.849 161.979 413.849 160.752V160.295C413.849 159.068 412.848 158.069 411.619 158.069H411.161Z" fill="white"/>
<path d="M423.828 163.898H423.37C421.633 163.898 420.218 162.486 420.218 160.752V160.295C420.218 158.562 421.633 157.15 423.37 157.15H423.828C425.565 157.15 426.98 158.562 426.98 160.295V160.752C426.98 162.486 425.565 163.898 423.828 163.898ZM423.37 158.069C422.141 158.069 421.14 159.068 421.14 160.295V160.752C421.14 161.979 422.141 162.978 423.37 162.978H423.828C425.057 162.978 426.058 161.979 426.058 160.752V160.295C426.058 159.068 425.057 158.069 423.828 158.069H423.37Z" fill="white"/>
<path d="M436.568 163.898H436.11C434.373 163.898 432.958 162.486 432.958 160.752V160.295C432.958 158.562 434.373 157.15 436.11 157.15H436.568C438.305 157.15 439.72 158.562 439.72 160.295V160.752C439.72 162.486 438.305 163.898 436.568 163.898ZM436.11 158.069C434.881 158.069 433.88 159.068 433.88 160.295V160.752C433.88 161.979 434.881 162.978 436.11 162.978H436.568C437.797 162.978 438.798 161.979 438.798 160.752V160.295C438.798 159.068 437.797 158.069 436.568 158.069H436.11Z" fill="white"/>
<path d="M321.658 275.774C313.035 275.774 306.032 268.786 306.032 260.195C306.032 251.605 313.035 244.601 321.643 244.601C330.251 244.601 337.268 251.59 337.268 260.18V260.198C337.268 268.788 330.266 275.776 321.658 275.776V275.774ZM321.658 245.521C313.543 245.521 306.954 252.097 306.954 260.18C306.954 268.264 313.543 274.854 321.64 274.854C329.738 274.854 336.344 268.279 336.344 260.198V260.18C336.344 252.097 329.755 245.521 321.655 245.521H321.658Z" fill="url(#paint17_linear_757_10004)"/>
<path d="M317.343 268.017C316.907 268.017 316.548 267.671 316.536 267.233L316.167 253.471C316.154 253.016 316.375 252.599 316.754 252.349C317.133 252.099 317.606 252.067 318.02 252.257L331.641 258.615C332.089 258.825 332.377 259.263 332.392 259.757C332.404 260.252 332.141 260.705 331.703 260.937L319.68 267.334C319.286 267.544 318.796 267.394 318.587 267.003C318.377 266.61 318.525 266.12 318.919 265.912L330.387 259.812L317.799 253.936L318.156 267.188C318.169 267.633 317.817 268.004 317.371 268.017C317.363 268.017 317.356 268.017 317.348 268.017H317.343Z" fill="url(#paint18_linear_757_10004)"/>
<path d="M249.413 241.32C254.617 227.707 268.986 220.16 282.309 224.359C283.739 224.809 285.099 225.38 286.388 226.053C290.86 231.359 292.605 238.763 290.357 245.865C286.864 256.899 275.069 263.019 264.013 259.532C255.655 256.896 250.114 249.527 249.416 241.317L249.413 241.32Z" fill="url(#paint19_linear_757_10004)"/>
<path d="M281.488 236.667C293.49 224.689 293.49 205.27 281.488 193.292C269.486 181.315 250.027 181.315 238.025 193.292C226.023 205.27 226.023 224.689 238.025 236.667C250.027 248.645 269.486 248.645 281.488 236.667Z" fill="url(#paint20_linear_757_10004)"/>
<path d="M253.075 195.516C265.17 202.123 269.533 217.398 262.823 229.633C260.868 233.199 258.184 236.112 255.07 238.288C265.861 240.984 277.591 236.122 283.253 225.803C289.963 213.567 285.6 198.293 273.505 191.685C264.937 187.004 254.785 187.931 247.21 193.221C249.215 193.72 251.184 194.482 253.078 195.516H253.075Z" fill="url(#paint21_linear_757_10004)"/>
<path d="M238.82 233.407C249.983 224.017 252.387 207.991 244.024 196.824C243.127 195.624 242.138 194.531 241.078 193.54C234.583 191.074 227.003 191.871 221.027 196.332C211.74 203.26 209.837 216.389 216.78 225.657C222.028 232.665 230.827 235.454 238.823 233.407H238.82Z" fill="url(#paint22_linear_757_10004)"/>
<path opacity="0.31" d="M240.792 196.796C242.058 198.468 243.585 201.02 244.311 204.282C244.851 206.698 242.836 208.913 240.368 208.656C234.107 208.003 223.031 208.335 220.87 218.313C220.521 219.922 218.239 219.997 217.77 218.414C215.483 210.691 215.956 196.055 236.077 194.652C237.905 194.524 239.682 195.333 240.79 196.794L240.792 196.796Z" fill="white"/>
<path opacity="0.68" d="M271.81 257.079C271.605 257.079 271.417 256.941 271.364 256.733C271.3 256.488 271.451 256.236 271.697 256.174C279.745 254.117 284.782 249.767 286.665 243.249C288.073 238.38 287.104 234.077 287.094 234.035C287.037 233.788 287.191 233.54 287.438 233.483C287.686 233.427 287.934 233.58 287.991 233.827C288.033 234.008 291.946 251.948 271.924 257.067C271.887 257.077 271.848 257.082 271.81 257.082V257.079Z" fill="white"/>
<g opacity="0.78">
<path opacity="0.78" d="M273.012 219.823C273.228 219.823 273.443 219.744 273.612 219.586L285.436 208.406C286.465 207.435 287.81 206.898 289.227 206.898H329.478C329.958 206.898 330.347 206.51 330.347 206.028C330.347 205.545 329.958 205.16 329.478 205.16H289.227C287.364 205.16 285.592 205.864 284.237 207.143L272.413 218.322C272.063 218.651 272.048 219.203 272.38 219.551C272.551 219.732 272.782 219.823 273.012 219.823Z" fill="#BDD0FB"/>
<path opacity="0.78" d="M295.41 201.51H329.48C329.961 201.51 330.35 201.121 330.35 200.639C330.35 200.157 329.961 199.771 329.48 199.771H295.41C294.929 199.771 294.54 200.159 294.54 200.639C294.54 201.119 294.929 201.51 295.41 201.51Z" fill="#BDD0FB"/>
<path opacity="0.78" d="M300.953 196.119H329.478C329.959 196.119 330.348 195.731 330.348 195.251C330.348 194.771 329.959 194.38 329.478 194.38H300.953C300.472 194.38 300.083 194.769 300.083 195.251C300.083 195.733 300.472 196.119 300.953 196.119Z" fill="#BDD0FB"/>
</g>
<g opacity="0.78">
<path opacity="0.78" d="M250.087 236.908C249.854 236.908 249.619 236.995 249.435 237.168L236.585 249.315C235.468 250.371 234.006 250.952 232.465 250.952H188.728C188.205 250.952 187.781 251.375 187.781 251.896C187.781 252.418 188.205 252.841 188.728 252.841H232.465C234.489 252.841 236.417 252.074 237.886 250.685L250.736 238.538C251.115 238.179 251.133 237.581 250.774 237.203C250.588 237.007 250.337 236.908 250.087 236.908Z" fill="#BDD0FB"/>
<path opacity="0.78" d="M225.75 256.81H188.728C188.205 256.81 187.781 257.233 187.781 257.754C187.781 258.276 188.205 258.699 188.728 258.699H225.75C226.272 258.699 226.696 258.276 226.696 257.754C226.696 257.233 226.272 256.81 225.75 256.81Z" fill="#BDD0FB"/>
<path opacity="0.78" d="M219.726 262.668H188.728C188.205 262.668 187.781 263.091 187.781 263.613C187.781 264.134 188.205 264.557 188.728 264.557H219.726C220.249 264.557 220.672 264.134 220.672 263.613C220.672 263.091 220.249 262.668 219.726 262.668Z" fill="#BDD0FB"/>
</g>
<path d="M374.526 84.5917L362.149 111.64C362.149 111.64 369.006 156.831 416.714 174.442C464.421 192.056 485.651 169.17 485.651 169.17L500.833 129.303L374.529 84.5917H374.526Z" fill="url(#paint23_linear_757_10004)"/>
<path d="M452.522 47.143L352.723 66.1394C347.584 67.1186 345.587 73.5084 349.239 77.2894C367.058 95.7417 407.472 138.628 422.081 162.746C423.645 165.325 426.742 166.487 429.594 165.577L531.754 132.99C536.375 131.516 537.879 125.641 534.539 122.092C516.931 103.378 472.062 56.4508 456.888 47.8527C455.562 47.101 454.016 46.8562 452.519 47.1406L452.522 47.143Z" fill="url(#paint24_linear_757_10004)"/>
<path d="M445.906 97.9574C445.906 97.9574 494.873 135.772 498.159 143.71C501.444 151.648 490.433 185.417 490.433 185.417C496.025 215.326 494.432 247.124 479.166 262.473C479.166 262.473 465.543 222.583 474.572 207.086C483.604 191.589 487.12 185.219 487.12 185.219C487.12 185.219 497.019 149.054 495.381 143.613C495.381 143.613 441.314 99.6686 445.906 97.9574Z" fill="url(#paint25_linear_757_10004)"/>
<path d="M364.932 76.5525L410.272 130.68L421.608 144.212L424.442 147.595L425.86 149.286C426.316 149.823 426.801 150.305 427.346 150.738C429.525 152.451 432.493 153.114 435.199 152.464L469.532 144.091C469.772 144.031 470.015 144.18 470.072 144.419C470.132 144.657 469.986 144.899 469.748 144.959L435.464 153.564C432.434 154.316 429.083 153.596 426.615 151.677C426.001 151.2 425.438 150.644 424.938 150.062L423.511 148.381L420.654 145.018L409.228 131.561L363.524 77.7369C363.195 77.3487 363.244 76.7676 363.631 76.4387C364.02 76.1098 364.602 76.1593 364.932 76.545L364.937 76.55L364.932 76.5525Z" fill="#BDD0FB"/>
<path d="M485.001 202.707L484.887 202.81L484.758 202.942L484.496 203.206L483.988 203.787C483.653 204.18 483.351 204.613 483.029 205.026L482.162 206.352C481.892 206.807 481.644 207.279 481.384 207.741C481.111 208.199 480.9 208.688 480.675 209.173C480.457 209.66 480.217 210.137 480.016 210.632L479.456 212.138C479.272 212.642 479.067 213.137 478.933 213.659L478.487 215.209C478.341 215.726 478.172 216.238 478.078 216.77C477.863 217.826 477.625 218.879 477.424 219.937L476.99 223.152C476.958 223.422 476.911 223.686 476.889 223.958L476.837 224.769L476.733 226.391C476.527 228.553 476.634 230.726 476.616 232.9C476.604 233.444 476.646 233.986 476.683 234.53L476.792 236.157C476.871 237.242 476.926 238.33 477.023 239.413C477.31 241.572 477.553 243.738 477.877 245.895L479.077 252.329V252.346C479.111 252.519 478.997 252.688 478.824 252.72C478.653 252.752 478.487 252.641 478.452 252.47L477.099 246.028C476.723 243.867 476.428 241.688 476.088 239.517C475.967 238.424 475.885 237.329 475.781 236.233L475.632 234.589C475.58 234.04 475.526 233.493 475.526 232.942C475.491 230.741 475.335 228.535 475.494 226.33L475.563 224.675L475.598 223.847C475.615 223.572 475.655 223.298 475.682 223.021L476.051 219.722C476.232 218.629 476.45 217.541 476.648 216.448C476.733 215.899 476.894 215.365 477.032 214.826L477.459 213.211C477.583 212.667 477.786 212.145 477.964 211.619L478.512 210.036C478.71 209.514 478.95 209.005 479.168 208.488C479.391 207.974 479.602 207.454 479.88 206.962C480.145 206.465 480.395 205.961 480.672 205.469L481.569 204.025C481.909 203.565 482.224 203.092 482.588 202.642L483.145 201.975L483.453 201.648L483.609 201.485L483.797 201.309C484.169 200.961 484.751 200.978 485.1 201.349C485.45 201.72 485.432 202.301 485.061 202.65L485.051 202.657L484.996 202.707H485.001Z" fill="#BDD0FB"/>
<path d="M485.348 216.488L485.16 218.577L484.976 220.894L484.632 225.541L483.98 234.841L482.734 253.449C482.717 253.724 482.479 253.934 482.201 253.917C481.929 253.899 481.721 253.667 481.733 253.395L482.561 234.76L483.002 225.442L483.242 220.781L483.373 218.446L483.45 217.272L483.492 216.683C483.517 216.438 483.557 216.154 483.604 215.894C483.69 215.407 484.154 215.081 484.642 215.167C485.105 215.249 485.422 215.669 485.38 216.127L485.348 216.488Z" fill="#BDD0FB"/>
<path d="M110.435 331.885C109.572 333.159 106.14 362.019 105.605 372.677C105.568 373.397 106.148 374 106.869 374C107.493 374 108.024 373.548 108.12 372.932L114.394 332.803L110.435 331.885Z" fill="url(#paint26_linear_757_10004)"/>
<path d="M138.016 331.885C138.879 333.159 142.31 362.019 142.846 372.677C142.883 373.397 142.305 374 141.582 374C140.957 374 140.427 373.548 140.331 372.932L134.057 332.803L138.016 331.885Z" fill="url(#paint27_linear_757_10004)"/>
<path d="M105.246 329.632V329.946C105.222 332.212 107.177 334.069 109.625 334.108L138.628 334.6C141.039 334.642 143.051 332.901 143.168 330.673L143.182 330.387C143.304 328.062 141.327 326.104 138.811 326.059L109.796 325.54C107.313 325.495 105.269 327.335 105.246 329.632Z" fill="url(#paint28_linear_757_10004)"/>
<path d="M161.668 371.631C156.511 371.631 154.232 371.191 153.211 370.788C153.409 371.634 154.162 372.299 155.116 372.299H173.356C173.97 372.299 174.357 371.713 174.211 371.181C172.132 371.347 167.716 371.631 161.668 371.631Z" fill="#7D97F4"/>
<path d="M174.211 371.181C174.181 371.075 174.139 370.968 174.062 370.872C172.672 369.101 169.882 366.322 166.086 366.374C160.523 366.453 158.585 367.054 154.264 366.408L153.245 369.781C153.141 370.125 153.139 370.469 153.216 370.788C154.236 371.191 156.516 371.631 161.673 371.631C167.721 371.631 172.137 371.349 174.216 371.181H174.211Z" fill="url(#paint29_linear_757_10004)"/>
<path d="M155.512 362.773L154.261 367.022C154.261 367.022 157.033 368.28 159.472 367.269L159.95 363.589L155.512 362.773Z" fill="url(#paint30_linear_757_10004)"/>
<path d="M193.314 368.955C189.295 372.177 187.241 373.261 186.195 373.587C186.877 374.119 187.883 374.166 188.626 373.57L202.844 362.17C203.322 361.787 203.258 361.089 202.812 360.768C201.295 362.197 198.03 365.177 193.314 368.958V368.955Z" fill="#7D97F4"/>
<path d="M202.812 360.765C202.723 360.701 202.621 360.647 202.502 360.62C200.315 360.115 196.402 359.702 193.476 362.116C189.189 365.652 188.054 367.333 184.28 369.532L185.591 372.786C185.725 373.117 185.938 373.384 186.196 373.585C187.241 373.258 189.295 372.175 193.315 368.953C198.03 365.172 201.296 362.192 202.812 360.763V360.765Z" fill="url(#paint31_linear_757_10004)"/>
<path d="M128.739 314.375C128.739 314.375 159.606 316.89 165.939 319.865C172.27 322.84 160.773 364.534 160.773 364.534C160.773 364.534 159.048 365.362 155.212 364.173C155.212 364.173 159.145 333.406 156.218 326.734L122.797 321.279L128.739 314.377V314.375Z" fill="url(#paint32_linear_757_10004)"/>
<path d="M181.213 363.676C181.5 363.936 184.28 369.532 184.28 369.532C184.28 369.532 187.375 368.864 188.007 366.908L185.222 361.856L181.213 363.673V363.676Z" fill="url(#paint33_linear_757_10004)"/>
<path d="M110.148 314.118C110.148 314.118 109.142 316.534 109.184 319.744C109.241 324.182 112.816 327.785 117.259 328.005L153.748 329.667C154.519 329.702 155.171 330.233 155.364 330.98C156.221 334.291 160.414 344.455 180.901 364.737C181.446 365.276 182.296 365.367 182.945 364.959L185.861 363.122C186.169 362.929 186.265 362.529 186.082 362.217L164.837 326.01C163.722 324.172 161.928 322.845 159.841 322.313L128.742 314.38L110.15 314.123L110.148 314.118Z" fill="url(#paint34_linear_757_10004)"/>
<path d="M146.109 257.557C146.109 257.557 142.199 264.453 138.215 267.797L146.454 272.384C146.454 272.384 148.31 265.081 152.552 262.942L146.112 257.557H146.109Z" fill="url(#paint35_linear_757_10004)"/>
<path d="M109.486 314.375C109.486 314.375 119.338 316.771 128.739 314.375C128.739 314.375 141.897 296.724 146.986 291.919C146.986 291.919 155.106 304.706 173.177 306.516L174.186 304.269C174.186 304.269 159.799 297.649 155.369 287.48C150.939 277.31 149.162 272.972 145.13 270.319C142.62 268.667 141.119 267.537 140.341 266.921C139.915 266.585 139.33 266.545 138.864 266.827C134.587 269.429 114.467 283.18 109.481 314.373L109.486 314.375Z" fill="url(#paint36_linear_757_10004)"/>
<path d="M146.453 291.501C146.314 291.501 146.178 291.439 146.086 291.321C142.964 287.258 141.225 282.782 141.153 282.592C141.061 282.354 141.18 282.087 141.418 281.998C141.656 281.907 141.924 282.025 142.013 282.263C142.03 282.307 143.78 286.808 146.817 290.762C146.974 290.965 146.934 291.252 146.733 291.407C146.649 291.472 146.55 291.501 146.453 291.501Z" fill="url(#paint37_linear_757_10004)"/>
<path d="M172.092 303.097L174.126 302.555L180.303 301.128C181.047 300.958 181.827 301.089 182.474 301.494L187.784 304.828L173.118 304.803L172.092 303.097Z" fill="url(#paint38_linear_757_10004)"/>
<path d="M152.316 247.215C152.316 247.215 156.115 253.518 156.774 257C157.433 260.484 158.491 262.661 154.519 263.902C150.547 265.143 146.855 263.573 144.538 260.321C144.538 260.321 140.921 255.319 141.28 253.026C141.639 250.734 152.316 247.215 152.316 247.215Z" fill="url(#paint39_linear_757_10004)"/>
<path d="M145.596 257.626L146.109 257.559C146.109 257.559 143.418 253.504 145.18 252.497C146.939 251.491 154.113 249.023 155.359 246.204C156.561 243.486 154.765 240.415 152.599 239.774C152.463 239.735 152.316 239.814 152.267 239.948L152.141 240.289C152.054 240.524 151.724 240.534 151.625 240.304C151.531 240.086 151.219 240.076 151.12 240.294C150.736 241.14 149.586 242.581 146.137 243.696C141.243 245.279 138.193 247.742 138.569 251.214C138.594 251.434 138.373 251.585 138.17 251.496C137.771 251.32 137.164 251.29 136.461 252.06C135.237 253.397 136.195 256.32 139.541 258.39C139.699 258.489 139.729 258.711 139.585 258.833C139.085 259.26 138.381 260.215 140.643 261.063C142.958 261.934 144.221 261.639 144.69 261.451C144.816 261.402 144.888 261.271 144.861 261.14L144.266 258.098C144.236 257.94 144.343 257.789 144.504 257.769L145.599 257.626H145.596Z" fill="url(#paint40_linear_757_10004)"/>
<path d="M145.807 258.249C145.807 258.249 144.129 254.124 142.37 255.573C140.611 257.023 143.998 260.227 145.561 260.185L145.807 258.249Z" fill="url(#paint41_linear_757_10004)"/>
<path d="M166.425 307.698C166.45 307.698 166.472 307.698 166.497 307.698L197.827 307.666C198.602 307.666 199.229 307.04 199.227 306.269C199.227 305.497 198.595 304.859 197.822 304.874L166.492 304.906C165.716 304.906 165.089 305.532 165.092 306.304C165.092 307.05 165.684 307.661 166.425 307.698Z" fill="url(#paint42_linear_757_10004)"/>
<path d="M209.961 277.08C209.949 277.102 209.939 277.122 209.929 277.144L196.747 305.507C196.42 306.21 196.724 307.041 197.426 307.365C198.127 307.688 198.972 307.387 199.286 306.682L212.469 278.319C212.796 277.616 212.491 276.785 211.79 276.461C211.111 276.147 210.308 276.424 209.961 277.08Z" fill="url(#paint43_linear_757_10004)"/>
<path d="M180.375 309.269C180.239 309.835 167.166 358.762 163.851 371.169C163.469 372.598 164.534 374.002 166.001 374.002C167.025 374.002 167.914 373.3 168.162 372.299L182.672 313.581L180.373 309.271L180.375 309.269Z" fill="#91B3FA"/>
<path d="M187.534 309.269C187.671 309.835 200.744 358.762 204.059 371.169C204.441 372.598 203.375 374.002 201.908 374.002C200.885 374.002 199.995 373.3 199.748 372.299L185.237 313.581L187.537 309.271L187.534 309.269Z" fill="#91B3FA"/>
<path d="M188.079 307.669H179.937V314.195C179.937 315.132 180.69 315.893 181.617 315.893H182.734V330.55C182.734 331.26 183.304 331.836 184.008 331.836C184.711 331.836 185.281 331.26 185.281 330.55V315.893H185.849C187.08 315.893 188.079 314.884 188.079 313.641V307.671V307.669Z" fill="#91B3FA"/>
<path d="M159.918 306.101H205.379C206.014 306.101 206.569 306.536 206.727 307.157L207.362 309.639C207.59 310.532 206.918 311.403 206.004 311.398L159.356 311.126C158.451 311.121 157.792 310.26 158.013 309.375L158.565 307.162C158.721 306.536 159.279 306.098 159.916 306.098L159.918 306.101Z" fill="#BDD0FB"/>
<path d="M420.849 276.553C420.782 276.682 416.508 279.82 416.508 279.82C416.508 279.82 417.452 286.558 421.285 289.221C425.5 292.147 431.452 286.81 431.452 286.81C431.452 286.81 436.189 287.933 438.707 278.094C439.284 275.836 435.949 275.645 431.923 276.061C426.731 276.597 420.849 276.55 420.849 276.55V276.553Z" fill="url(#paint44_linear_757_10004)"/>
<path d="M412.861 299.545C414.534 298.398 416.382 297.533 418.342 297.001C419.078 296.801 423.052 297.953 425.51 297.899C428.883 297.822 432.317 296.289 435.097 296.981C437.86 297.669 440.12 298.566 441.426 299.491C445.333 302.263 447.625 307.434 449.025 312.557C446.379 315.27 443.049 316.474 443.049 316.474L442.434 341.371L427.684 348.903L410.846 340.468L411.449 316.138C411.449 316.138 406.101 313.653 405.71 312.75C405.318 311.845 408.146 302.787 412.863 299.55L412.861 299.545Z" fill="#BDD0FB"/>
<path d="M405.955 312.639C405.955 312.639 398.792 332.461 415.128 340.609C418.521 340.159 417.217 334.536 417.217 334.536C417.217 334.536 410.118 332.968 412.249 316.432C410.287 314.82 405.955 312.639 405.955 312.639Z" fill="url(#paint45_linear_757_10004)"/>
<path d="M448.678 312.639C448.678 312.639 453.609 333.332 439.505 340.609C436.113 340.159 437.416 334.536 437.416 334.536C437.416 334.536 443.137 331.724 442.384 316.432C444.347 314.82 448.678 312.639 448.678 312.639Z" fill="url(#paint46_linear_757_10004)"/>
<path d="M440.933 320.198H412.712C411.573 320.198 410.648 321.121 410.648 322.258V339.939C410.648 341.077 411.573 341.999 412.712 341.999H440.933C442.073 341.999 442.997 341.077 442.997 339.939V322.258C442.997 321.121 442.073 320.198 440.933 320.198Z" fill="url(#paint47_linear_757_10004)"/>
<path d="M457.184 348.466C453.482 347.617 444.926 348.072 444.926 348.072L444.579 349.012L444.002 353.688C444.002 353.688 452.149 355.155 456.166 355.15C456.575 355.15 456.951 355.088 457.293 354.981C457.415 354.873 457.536 354.759 457.648 354.635C459.352 352.778 458.859 350.051 457.184 348.466Z" fill="#91B3FA"/>
<path d="M442.466 347.81L443.915 347.872C444.693 347.904 445.427 348.283 445.95 348.923C446.473 349.561 446.743 350.407 446.696 351.267C446.658 351.955 446.376 352.595 445.913 353.05C445.447 353.505 444.837 353.738 444.218 353.693L442 353.535L442.466 347.81Z" fill="url(#paint48_linear_757_10004)"/>
<path d="M393.749 348.016C397.471 347.281 406.012 347.998 406.012 347.998L406.337 348.95L406.795 353.641C406.795 353.641 398.613 354.858 394.599 354.729C394.19 354.717 393.816 354.643 393.476 354.527C393.358 354.413 393.241 354.297 393.13 354.168C391.472 352.259 392.032 349.546 393.749 348.013V348.016Z" fill="#91B3FA"/>
<path d="M408.477 347.81L407.028 347.828C406.25 347.837 405.506 348.194 404.966 348.814C404.426 349.437 404.136 350.273 404.161 351.134C404.18 351.821 404.446 352.472 404.899 352.941C405.352 353.411 405.957 353.661 406.577 353.636L408.797 353.547L408.475 347.81H408.477Z" fill="url(#paint49_linear_757_10004)"/>
<path d="M458.219 333.809C456.539 329.954 452.433 329.328 448.939 331.131C448.877 331.21 426.745 342.531 407.227 347.494C407.784 349.281 408.072 351.183 408.136 353.053C408.148 353.468 408.141 353.881 408.116 354.287C423.085 353.52 439.33 348.537 453.288 344.16C457.616 342.768 460.079 338.087 458.219 333.811V333.809Z" fill="url(#paint50_linear_757_10004)"/>
<path d="M442.573 353.344C442.514 351.188 442.935 349.182 443.832 347.325C443.857 347.241 443.889 347.16 443.916 347.076C442.801 346.732 441.362 346.265 439.471 345.624C425.61 340.891 415.037 336.111 404.944 330.609C401.024 328.473 396.567 329.904 395.31 334.533C394.19 338.666 396.651 342.194 400.385 343.436C411.555 347.145 405.74 346.114 409.387 347.286C419.185 350.31 431.378 353.062 442.595 353.817C442.588 353.661 442.578 353.503 442.573 353.347V353.344Z" fill="url(#paint51_linear_757_10004)"/>
<path d="M418.342 297.001C418.342 297.001 419.833 303.447 427.069 303.314C434.441 303.18 435.097 296.981 435.097 296.981L430.283 295.952L429.881 290.599L422.638 291.135L422.505 296.222L418.342 297.003V297.001Z" fill="url(#paint52_linear_757_10004)"/>
<path d="M423.654 275.428C423.654 275.428 415.353 291.474 425.201 295.366C432.146 298.111 436.5 284.711 435.201 281.081C433.194 275.467 431.871 276.135 431.871 276.135L423.654 275.428Z" fill="url(#paint53_linear_757_10004)"/>
<path d="M437.198 273.966C441.299 275.092 437.795 283.967 431.62 281.867C425.445 279.768 423.02 279.8 422.058 281.491C421.097 283.183 420.889 289.192 418.802 286.222C416.513 282.965 415.237 276.432 418.044 274.325C420.552 272.443 421.136 269.523 424.145 269.624C428.136 269.758 431.224 267.992 433.025 269.266C435.094 270.729 434.18 273.138 437.198 273.966Z" fill="url(#paint54_linear_757_10004)"/>
<path d="M421.679 282.871C421.679 282.871 419.91 280.969 419.625 283.262C419.343 285.552 420.252 288.504 421.318 286.887C422.383 285.27 421.679 282.873 421.679 282.873V282.871Z" fill="url(#paint55_linear_757_10004)"/>
<path d="M428.729 326.104C428.9 327.261 428.28 328.309 427.121 328.483C425.961 328.653 424.883 327.854 424.712 326.697C424.541 325.54 425.071 324.392 426.231 324.219C427.391 324.049 428.56 324.946 428.731 326.104H428.729Z" fill="url(#paint56_linear_757_10004)"/>
<path d="M129.86 226.926L128.522 227.339C128.388 227.381 128.244 227.304 128.202 227.17C128.16 227.037 128.237 226.893 128.37 226.851H128.378L128.395 226.844L129.713 226.483L129.728 226.478C129.852 226.443 129.981 226.518 130.013 226.641C130.046 226.762 129.976 226.888 129.857 226.926H129.86Z" fill="white"/>
<path d="M125.307 227.932L123.907 228.031C123.726 228.043 123.568 227.907 123.555 227.727C123.543 227.546 123.679 227.388 123.86 227.376H123.892L125.253 227.324H125.273C125.441 227.316 125.585 227.447 125.59 227.618C125.597 227.784 125.468 227.922 125.305 227.935L125.307 227.932Z" fill="white"/>
<path d="M120.632 227.91L119.24 227.717C119.019 227.687 118.866 227.482 118.895 227.262C118.925 227.042 119.131 226.889 119.351 226.918H119.361L119.386 226.923L120.726 227.153L120.749 227.158C120.957 227.193 121.096 227.391 121.061 227.598C121.026 227.801 120.835 227.94 120.632 227.91Z" fill="white"/>
<path d="M116.051 226.955L114.718 226.508C114.477 226.426 114.346 226.166 114.428 225.924C114.509 225.684 114.77 225.553 115.012 225.635H115.02L115.045 225.647L116.323 226.11L116.346 226.117C116.576 226.201 116.695 226.456 116.611 226.686C116.529 226.913 116.279 227.032 116.051 226.955Z" fill="white"/>
<path d="M111.704 225.21L110.46 224.552C110.208 224.418 110.114 224.107 110.247 223.854C110.381 223.602 110.693 223.508 110.946 223.642L110.956 223.647L110.978 223.659L112.163 224.324L112.183 224.337C112.423 224.473 112.51 224.777 112.373 225.017C112.24 225.254 111.942 225.338 111.704 225.212V225.21Z" fill="white"/>
<path d="M107.688 222.793L106.561 221.953C106.308 221.765 106.256 221.406 106.444 221.154C106.633 220.902 106.992 220.85 107.245 221.038L107.254 221.045L107.277 221.062L108.345 221.901L108.365 221.916C108.605 222.104 108.647 222.452 108.459 222.695C108.273 222.932 107.931 222.976 107.691 222.796L107.688 222.793Z" fill="white"/>
<path d="M104.083 219.791L103.091 218.783C102.849 218.535 102.854 218.14 103.099 217.897C103.347 217.655 103.743 217.66 103.986 217.905L103.993 217.912L104.016 217.934L104.942 218.923L104.962 218.946C105.193 219.191 105.18 219.576 104.933 219.806C104.69 220.034 104.311 220.024 104.08 219.789L104.083 219.791Z" fill="white"/>
<path d="M100.967 216.275L100.13 215.145C99.9042 214.843 99.9687 214.415 100.273 214.193C100.576 213.968 101.004 214.032 101.227 214.336L101.235 214.346L101.252 214.368L102.033 215.476L102.048 215.496C102.258 215.795 102.186 216.211 101.887 216.421C101.589 216.629 101.183 216.562 100.967 216.273V216.275Z" fill="white"/>
<path d="M98.3385 212.398L97.6398 211.179C97.4366 210.825 97.5605 210.375 97.9148 210.172C98.2691 209.969 98.7201 210.093 98.9233 210.447L98.9307 210.459L98.9431 210.484L99.5899 211.678L99.6022 211.7C99.7906 212.049 99.6617 212.487 99.3099 212.677C98.9654 212.863 98.5343 212.739 98.341 212.4L98.3385 212.398Z" fill="white"/>
<path d="M96.163 208.256L95.5906 206.975C95.4122 206.574 95.5906 206.107 95.9921 205.929C96.3935 205.751 96.8618 205.929 97.0402 206.329L97.0451 206.344L97.0551 206.366L97.5779 207.62L97.5853 207.64C97.7513 208.036 97.563 208.488 97.1666 208.654C96.7775 208.817 96.329 208.637 96.1581 208.253L96.163 208.256Z" fill="white"/>
<path d="M94.3987 203.928L93.9453 202.603C93.7966 202.168 94.0295 201.695 94.4656 201.544C94.9017 201.396 95.375 201.628 95.5261 202.064V202.071L95.536 202.093L95.9573 203.389L95.9622 203.406C96.1035 203.839 95.8656 204.302 95.4345 204.443C95.0058 204.581 94.5449 204.351 94.3987 203.926V203.928Z" fill="white"/>
<path d="M93.0013 199.482L92.642 198.129C92.5181 197.667 92.7931 197.192 93.259 197.069C93.7223 196.945 94.1981 197.222 94.322 197.684V197.692L94.3294 197.711L94.6615 199.037L94.6664 199.052C94.7804 199.512 94.5029 199.977 94.042 200.09C93.5861 200.204 93.1252 199.932 93.0038 199.48L93.0013 199.482Z" fill="white"/>
<path d="M91.8933 194.962L91.6109 193.597C91.5093 193.11 91.824 192.632 92.3121 192.533C92.8002 192.432 93.2785 192.746 93.3776 193.233V193.241L93.3825 193.258L93.6402 194.601V194.613C93.7344 195.095 93.4197 195.563 92.934 195.654C92.4558 195.746 91.9924 195.437 91.8933 194.959V194.962Z" fill="white"/>
<path d="M91.0269 190.399L90.8039 189.024C90.7222 188.515 91.0691 188.035 91.5795 187.954C92.0899 187.872 92.5706 188.218 92.6524 188.728V188.735L92.6574 188.752L92.8556 190.108V190.12C92.9299 190.624 92.5806 191.094 92.0751 191.168C91.5745 191.243 91.1087 190.899 91.0269 190.402V190.399Z" fill="white"/>
<path d="M90.3528 185.807L90.1892 184.425C90.1273 183.893 90.5064 183.414 91.0392 183.349C91.5719 183.287 92.0526 183.666 92.117 184.197V184.225L92.2607 185.585V185.597C92.3177 186.124 91.9337 186.594 91.4059 186.648C90.883 186.702 90.4147 186.327 90.3528 185.807Z" fill="white"/>
<path d="M89.8741 181.191L89.7676 179.801C89.7255 179.249 90.1393 178.767 90.6918 178.725C91.2444 178.683 91.7276 179.096 91.7697 179.647V179.675L91.8564 181.04V181.052C91.8911 181.599 91.4748 182.068 90.9248 182.103C90.3821 182.135 89.9138 181.727 89.8717 181.188L89.8741 181.191Z" fill="white"/>
<path d="M89.5868 176.554L89.5397 175.162C89.5199 174.59 89.9684 174.111 90.5408 174.091C91.1131 174.071 91.5938 174.519 91.6137 175.09V175.117L91.6409 176.485V176.497C91.6533 177.063 91.1999 177.531 90.6324 177.543C90.07 177.553 89.6041 177.11 89.5843 176.551L89.5868 176.554Z" fill="white"/>
<path d="M89.4976 171.91L89.5075 170.515C89.5125 169.924 89.9957 169.449 90.5879 169.454C91.1801 169.459 91.6559 169.942 91.6509 170.533V170.562L91.6187 171.93V171.942C91.6063 172.528 91.1182 172.991 90.5334 172.978C89.9536 172.966 89.4902 172.489 89.4952 171.91H89.4976Z" fill="white"/>
<path d="M89.602 167.264L89.6738 165.871C89.7036 165.263 90.2239 164.793 90.8359 164.825C91.4455 164.855 91.9163 165.374 91.8841 165.983V166.012L91.7924 167.375V167.39C91.7527 167.993 91.2299 168.448 90.6253 168.408C90.0282 168.369 89.5722 167.857 89.602 167.261V167.264Z" fill="white"/>
<path d="M89.9091 162.624L90.0404 161.235C90.0999 160.609 90.6549 160.149 91.2843 160.209C91.9137 160.268 92.3721 160.822 92.3126 161.45V161.482L92.1615 162.84V162.854C92.0921 163.473 91.5346 163.92 90.9126 163.853C90.2981 163.787 89.8521 163.238 89.9116 162.627L89.9091 162.624Z" fill="white"/>
<path d="M90.4198 158L90.6131 156.618C90.7023 155.978 91.297 155.53 91.9388 155.619C92.5805 155.708 93.029 156.301 92.9398 156.942V156.952L92.9349 156.974L92.7242 158.322V158.337C92.6227 158.97 92.028 159.405 91.3936 159.306C90.7643 159.21 90.3306 158.623 90.4198 157.998V158Z" fill="white"/>
<path d="M91.1426 153.401L91.4003 152.028C91.5241 151.373 92.156 150.943 92.8102 151.066C93.4668 151.19 93.8979 151.821 93.774 152.474V152.483L93.7666 152.506L93.4941 153.841V153.858C93.3602 154.506 92.7259 154.924 92.0792 154.793C91.4374 154.662 91.0187 154.041 91.1401 153.401H91.1426Z" fill="white"/>
<path d="M92.0896 148.838L92.4192 147.478C92.5778 146.821 93.2418 146.417 93.901 146.576C94.5601 146.734 94.964 147.397 94.8054 148.055V148.064L94.7979 148.082L94.4684 149.405L94.4634 149.422C94.2999 150.075 93.6358 150.473 92.9817 150.31C92.33 150.147 91.9335 149.491 92.0896 148.841V148.838Z" fill="white"/>
<path d="M93.2641 144.325L93.6605 142.983C93.8563 142.325 94.5476 141.949 95.2067 142.142C95.8658 142.335 96.2425 143.027 96.0492 143.685V143.695L96.0418 143.712L95.6453 145.015L95.6404 145.033C95.4421 145.686 94.7483 146.056 94.0942 145.856C93.4425 145.658 93.0733 144.973 93.2641 144.323V144.325Z" fill="white"/>
<path d="M94.6694 139.874L95.1352 138.554C95.3682 137.899 96.0892 137.552 96.7458 137.785C97.4025 138.017 97.7494 138.737 97.5165 139.392V139.402L97.5066 139.422L97.0432 140.7L97.0358 140.72C96.8004 141.37 96.0793 141.709 95.4252 141.474C94.776 141.239 94.4365 140.527 94.6669 139.877L94.6694 139.874Z" fill="white"/>
<path d="M96.3064 135.502L96.8441 134.207C97.1142 133.554 97.865 133.247 98.5167 133.517C99.1708 133.786 99.4781 134.535 99.208 135.186L99.203 135.196L99.1956 135.216L98.6629 136.467L98.6554 136.487C98.3804 137.134 97.6321 137.436 96.9853 137.162C96.3411 136.89 96.0388 136.148 96.3064 135.502Z" fill="white"/>
<path d="M98.1879 131.222L98.8 129.958C99.1122 129.315 99.8878 129.046 100.534 129.357C101.181 129.669 101.449 130.443 101.137 131.088L101.132 131.098L101.122 131.118L100.52 132.337L100.51 132.357C100.195 132.995 99.4194 133.26 98.7801 132.943C98.1433 132.629 97.8807 131.862 98.1879 131.224V131.222Z" fill="white"/>
<path d="M100.316 127.053L101.002 125.826C101.356 125.193 102.159 124.968 102.794 125.322C103.428 125.675 103.653 126.477 103.299 127.11L103.294 127.119L103.282 127.139L102.608 128.319L102.595 128.339C102.236 128.967 101.438 129.184 100.809 128.828C100.184 128.472 99.9639 127.681 100.313 127.053H100.316Z" fill="white"/>
<path d="M102.694 123.015L103.458 121.833C103.857 121.214 104.682 121.036 105.301 121.434C105.921 121.833 106.099 122.656 105.7 123.274L105.695 123.282L105.68 123.304L104.937 124.437L104.922 124.459C104.521 125.072 103.698 125.243 103.083 124.842C102.474 124.444 102.3 123.628 102.694 123.017V123.015Z" fill="white"/>
<path d="M105.328 119.135L106.171 118.005C106.614 117.409 107.457 117.285 108.054 117.728C108.651 118.17 108.775 119.011 108.331 119.607L108.317 119.632L107.504 120.715L107.489 120.737C107.043 121.331 106.2 121.452 105.608 121.007C105.016 120.562 104.89 119.726 105.336 119.132L105.328 119.135Z" fill="white"/>
<path d="M108.22 115.438L109.137 114.367C109.623 113.801 110.475 113.734 111.043 114.216C111.61 114.701 111.677 115.552 111.194 116.118L111.176 116.143L110.294 117.169L110.277 117.189C109.791 117.752 108.939 117.819 108.372 117.335C107.807 116.85 107.737 116.002 108.225 115.438H108.22Z" fill="white"/>
<path d="M111.36 111.941L112.349 110.935C112.874 110.401 113.734 110.391 114.269 110.917C114.804 111.442 114.814 112.3 114.286 112.834H114.284L114.264 112.856L113.313 113.818L113.293 113.838C112.767 114.37 111.908 114.377 111.375 113.85C110.842 113.326 110.832 112.47 111.36 111.939V111.941Z" fill="white"/>
<path d="M114.738 108.672L115.793 107.737C116.358 107.238 117.22 107.292 117.718 107.854C118.219 108.417 118.164 109.278 117.602 109.775H117.599L117.577 109.797L116.561 110.69L116.539 110.71C115.974 111.207 115.112 111.152 114.616 110.589C114.118 110.025 114.17 109.167 114.735 108.672H114.738Z" fill="white"/>
<path d="M118.335 105.648L119.455 104.79C120.055 104.33 120.917 104.444 121.378 105.042C121.839 105.64 121.725 106.501 121.126 106.961H121.123L121.101 106.981L120.023 107.802L120.001 107.819C119.398 108.276 118.541 108.16 118.083 107.562C117.624 106.961 117.736 106.108 118.338 105.65L118.335 105.648Z" fill="white"/>
<path d="M122.136 102.881L123.31 102.102C123.944 101.681 124.799 101.855 125.218 102.488C125.639 103.121 125.466 103.974 124.832 104.392H124.829L124.807 104.409L123.674 105.153L123.652 105.168C123.018 105.586 122.165 105.41 121.747 104.777C121.328 104.144 121.499 103.296 122.133 102.878L122.136 102.881Z" fill="white"/>
<path d="M126.113 100.378L127.337 99.6784C127.999 99.3 128.846 99.5275 129.225 100.19C129.604 100.851 129.376 101.696 128.712 102.075H128.71L128.687 102.089L127.508 102.76L127.486 102.772C126.822 103.148 125.979 102.918 125.602 102.258C125.226 101.595 125.454 100.757 126.115 100.378H126.113Z" fill="white"/>
<path d="M130.238 98.1379L131.502 97.5172C132.191 97.1785 133.023 97.4628 133.363 98.1478C133.702 98.8353 133.417 99.6661 132.731 100.005H132.729L132.706 100.017L131.487 100.613L131.465 100.626C130.776 100.962 129.946 100.678 129.609 99.9901C129.272 99.3026 129.554 98.4742 130.243 98.1404L130.238 98.1379Z" fill="white"/>
<path d="M134.493 96.1571L135.792 95.6131C136.503 95.3164 137.321 95.6502 137.618 96.3574C137.915 97.0671 137.581 97.8832 136.872 98.1799H136.87L136.847 98.1898L135.594 98.7116L135.571 98.7215C134.86 99.0157 134.045 98.6819 133.75 97.9722C133.455 97.2625 133.787 96.4514 134.498 96.1547L134.493 96.1571Z" fill="white"/>
<path d="M138.856 94.4409L140.184 93.976C140.91 93.7213 141.703 94.1046 141.958 94.8267C142.214 95.5488 141.83 96.3425 141.106 96.5972L141.089 96.6047L139.808 97.0572L139.785 97.0646C139.059 97.3218 138.264 96.941 138.006 96.2164C137.749 95.4919 138.13 94.6981 138.856 94.4409H138.859H138.856Z" fill="white"/>
<path d="M143.312 92.9795L144.66 92.5888C145.395 92.3762 146.164 92.799 146.377 93.531C146.59 94.2654 146.166 95.032 145.433 95.2446L145.415 95.2496L144.109 95.6304L144.087 95.6378C143.351 95.853 142.581 95.4326 142.365 94.6982C142.149 93.9637 142.571 93.1947 143.307 92.9795H143.312Z" fill="white"/>
<path d="M147.832 91.7629L149.2 91.4439C149.941 91.2708 150.681 91.7308 150.855 92.4726C151.028 93.212 150.567 93.9514 149.824 94.1245L149.807 94.1294L148.481 94.441L148.461 94.4459C147.718 94.6215 146.975 94.1616 146.801 93.4222C146.625 92.6803 147.086 91.9385 147.827 91.7654H147.832V91.7629Z" fill="white"/>
<path d="M152.411 90.7861L153.794 90.5389C154.539 90.4053 155.253 90.8999 155.387 91.6442C155.521 92.3885 155.025 93.1007 154.279 93.2343H154.262L152.919 93.4815H152.899C152.153 93.62 151.437 93.1279 151.301 92.3811C151.165 91.6368 151.66 90.9221 152.406 90.7861H152.411Z" fill="white"/>
<path d="M157.032 90.0418L158.427 89.8638C159.175 89.7673 159.859 90.2965 159.956 91.0433C160.052 91.7901 159.522 92.4726 158.774 92.569H158.756L157.403 92.7496H157.384C156.635 92.8509 155.946 92.3242 155.85 91.575C155.751 90.8282 156.279 90.1407 157.029 90.0443H157.034L157.032 90.0418Z" fill="white"/>
<path d="M161.683 89.525L163.083 89.4137C163.831 89.3544 164.485 89.9133 164.545 90.6601C164.604 91.4069 164.044 92.0597 163.296 92.119H163.281L161.921 92.2328H161.901C161.153 92.2946 160.493 91.7382 160.431 90.9914C160.37 90.2446 160.927 89.5868 161.678 89.525H161.683Z" fill="white"/>
<path d="M166.351 89.2357L167.751 89.1912C168.497 89.1665 169.123 89.7525 169.146 90.4968C169.171 91.2412 168.583 91.8668 167.837 91.889H167.823L166.46 91.936H166.442C165.694 91.9632 165.067 91.3796 165.04 90.6328C165.013 89.8861 165.6 89.2604 166.346 89.2332H166.351V89.2357Z" fill="white"/>
<path d="M171.02 89.159L172.42 89.1738C173.163 89.1813 173.76 89.792 173.75 90.5339C173.743 91.2757 173.131 91.8717 172.387 91.8618H172.375L171.01 91.8494H170.992C170.247 91.842 169.649 91.2362 169.654 90.4919C169.662 89.7475 170.269 89.1516 171.015 89.1565H171.02V89.159Z" fill="white"/>
<path d="M175.683 89.2802L177.08 89.3543C177.819 89.3939 178.386 90.022 178.349 90.7614C178.309 91.4983 177.68 92.0646 176.939 92.0275H176.927L175.561 91.9582H175.544C174.803 91.9211 174.233 91.2906 174.27 90.5537C174.307 89.8143 174.937 89.2455 175.678 89.2826H175.683V89.2802Z" fill="white"/>
<path d="M180.336 89.5893L181.729 89.7179C182.462 89.7846 183.002 90.4325 182.935 91.1645C182.869 91.8964 182.219 92.4355 181.486 92.3687H181.473L180.111 92.2476H180.096C179.36 92.1808 178.82 91.5329 178.884 90.801C178.949 90.0665 179.598 89.5275 180.334 89.5917H180.339L180.336 89.5893Z" fill="white"/>
<path d="M184.972 90.0765L186.358 90.2545C187.084 90.3485 187.596 91.0112 187.505 91.7382C187.411 92.4627 186.747 92.9771 186.018 92.8831H186.008L184.65 92.71H184.635C183.907 92.6161 183.392 91.9533 183.483 91.2263C183.575 90.4993 184.239 89.985 184.967 90.0765H184.97H184.972Z" fill="white"/>
<path d="M189.581 90.7268L190.959 90.9518C191.677 91.0705 192.165 91.7481 192.049 92.4652C191.93 93.1823 191.251 93.6695 190.532 93.5533H190.523L189.17 93.3332H189.157C188.436 93.2145 187.946 92.5369 188.062 91.8173C188.178 91.0977 188.857 90.6081 189.578 90.7243H189.581V90.7268Z" fill="white"/>
<path d="M194.165 91.5329L195.533 91.8025C196.244 91.9434 196.708 92.6334 196.569 93.3431C196.428 94.0528 195.736 94.5152 195.025 94.3767H195.018L193.672 94.1146H193.66C192.946 93.9736 192.48 93.2837 192.619 92.5715C192.758 91.8594 193.449 91.3945 194.163 91.5329H194.165Z" fill="white"/>
<path d="M198.714 92.48L200.075 92.7915C200.779 92.9523 201.22 93.6521 201.059 94.3544C200.897 95.0567 200.196 95.4968 199.493 95.3361H199.485L198.147 95.0319H198.137C197.431 94.8712 196.99 94.1714 197.148 93.4666C197.307 92.7619 198.008 92.3217 198.714 92.48H198.717H198.714Z" fill="white"/>
<path d="M203.236 93.5581L204.587 93.9068C205.283 94.0873 205.702 94.7946 205.521 95.4894C205.34 96.1843 204.631 96.6022 203.935 96.4217H203.928L202.597 96.0804H202.587C201.891 95.8999 201.47 95.1927 201.645 94.4953C201.821 93.798 202.533 93.3801 203.231 93.5557H203.234L203.236 93.5581Z" fill="white"/>
<path d="M207.726 94.7599L209.067 95.1432C209.755 95.3386 210.152 96.0557 209.956 96.7407C209.76 97.4256 209.042 97.8238 208.355 97.6284H208.35L207.027 97.2526H207.017C206.328 97.0547 205.927 96.3401 206.123 95.6526C206.319 94.9652 207.035 94.5646 207.724 94.7599H207.726Z" fill="white"/>
<path d="M212.179 96.0705L213.509 96.4835C214.188 96.6937 214.568 97.4157 214.357 98.0933C214.146 98.7709 213.423 99.1492 212.744 98.939H212.739L211.426 98.5335H211.418C210.737 98.3208 210.355 97.6012 210.566 96.9212C210.776 96.2411 211.497 95.8603 212.179 96.0705H212.181H212.179Z" fill="white"/>
<path d="M216.6 97.485L217.918 97.9276C218.59 98.1527 218.952 98.8772 218.726 99.5473C218.501 100.217 217.775 100.579 217.103 100.353H217.098L215.792 99.9183H215.785C215.111 99.6932 214.749 98.9662 214.972 98.2961C215.195 97.6235 215.924 97.2624 216.595 97.485H216.598H216.6Z" fill="white"/>
<path d="M220.983 98.9885L222.291 99.4559C222.955 99.6933 223.299 100.423 223.061 101.083C222.824 101.746 222.093 102.089 221.431 101.852H221.426L220.13 101.392H220.123C219.459 101.155 219.109 100.425 219.347 99.7625C219.583 99.0998 220.314 98.7511 220.978 98.9885H220.98H220.983Z" fill="white"/>
<path d="M225.334 100.579L226.632 101.071C227.286 101.32 227.616 102.05 227.368 102.705C227.118 103.358 226.387 103.687 225.73 103.44H225.728L224.442 102.955H224.434C223.778 102.705 223.446 101.973 223.693 101.318C223.941 100.663 224.675 100.331 225.331 100.579H225.334Z" fill="white"/>
<path d="M229.653 102.253L230.944 102.77C231.591 103.029 231.906 103.764 231.645 104.409C231.385 105.054 230.649 105.368 230.003 105.109H230L228.722 104.599H228.714C228.065 104.337 227.75 103.605 228.008 102.957C228.266 102.31 229.002 101.996 229.651 102.253H229.653Z" fill="white"/>
<path d="M233.942 104.006L235.223 104.548C235.862 104.817 236.16 105.554 235.89 106.192C235.619 106.83 234.881 107.127 234.242 106.857H234.239L232.971 106.323H232.963C232.321 106.051 232.022 105.317 232.292 104.676C232.562 104.038 233.298 103.736 233.939 104.006H233.942Z" fill="white"/>
<path d="M238.197 105.836L239.468 106.4C240.1 106.679 240.382 107.416 240.102 108.047C239.822 108.677 239.084 108.959 238.452 108.68H238.45L237.191 108.123H237.186C236.554 107.841 236.267 107.104 236.547 106.474C236.827 105.843 237.565 105.556 238.197 105.836H238.199H238.197Z" fill="white"/>
<path d="M242.416 107.74L243.675 108.323C244.297 108.613 244.567 109.35 244.277 109.973C243.987 110.594 243.249 110.863 242.624 110.574H242.622L241.371 109.998H241.366C240.741 109.708 240.469 108.969 240.756 108.346C241.043 107.723 241.784 107.451 242.409 107.737H242.411L242.416 107.74Z" fill="white"/>
<path d="M246.604 109.713L247.853 110.319C248.467 110.616 248.725 111.355 248.425 111.968C248.128 112.582 247.387 112.836 246.772 112.54L245.531 111.941H245.526C244.909 111.642 244.651 110.903 244.949 110.289C245.246 109.674 245.987 109.416 246.601 109.713H246.604Z" fill="white"/>
<path d="M250.759 111.753L251.998 112.379C252.605 112.686 252.848 113.423 252.541 114.028C252.234 114.634 251.495 114.877 250.888 114.57L249.657 113.952H249.652C249.042 113.645 248.797 112.906 249.102 112.3C249.406 111.692 250.147 111.447 250.754 111.751H250.757L250.759 111.753Z" fill="white"/>
<path d="M254.878 113.865L256.104 114.511C256.696 114.822 256.922 115.554 256.61 116.145C256.3 116.734 255.571 116.959 254.982 116.654H254.977L253.755 116.021H253.75C253.153 115.71 252.918 114.978 253.227 114.379C253.537 113.783 254.271 113.549 254.87 113.858L254.88 113.863L254.878 113.865Z" fill="white"/>
<path d="M258.958 116.041L260.175 116.704C260.752 117.018 260.965 117.742 260.648 118.319C260.334 118.892 259.617 119.105 259.04 118.798H259.035L257.821 118.148H257.816C257.234 117.834 257.013 117.109 257.325 116.528C257.638 115.947 258.364 115.727 258.948 116.039L258.958 116.044V116.041Z" fill="white"/>
<path d="M263.008 118.274L264.215 118.954C264.777 119.271 264.978 119.985 264.658 120.547C264.341 121.106 263.632 121.306 263.072 120.994H263.067L261.863 120.327H261.858C261.288 120.01 261.083 119.295 261.397 118.727C261.712 118.158 262.428 117.953 262.998 118.267L263.008 118.272V118.274Z" fill="white"/>
<path d="M267.024 120.564L268.223 121.261C268.773 121.58 268.959 122.285 268.64 122.832C268.323 123.376 267.624 123.564 267.074 123.252H267.069L265.872 122.567H265.867C265.312 122.248 265.119 121.543 265.436 120.989C265.753 120.435 266.459 120.243 267.014 120.559L267.024 120.564Z" fill="white"/>
<path d="M271.009 122.903L272.198 123.616C272.734 123.937 272.907 124.629 272.587 125.164C272.268 125.695 271.579 125.871 271.046 125.557H271.041L269.852 124.857H269.849C269.309 124.538 269.126 123.843 269.445 123.301C269.763 122.762 270.461 122.579 271.002 122.898L271.009 122.903Z" fill="white"/>
<path d="M274.964 125.295L276.145 126.022C276.668 126.343 276.829 127.026 276.507 127.547C276.188 128.064 275.509 128.227 274.988 127.916H274.983L273.801 127.201H273.799C273.271 126.882 273.103 126.197 273.42 125.67C273.737 125.144 274.426 124.976 274.954 125.292L274.961 125.297L274.964 125.295Z" fill="white"/>
<path d="M278.891 127.73L280.063 128.47C280.571 128.791 280.725 129.464 280.402 129.971C280.083 130.475 279.416 130.628 278.908 130.314H278.906L277.734 129.587H277.731C277.216 129.266 277.057 128.593 277.377 128.079C277.697 127.565 278.371 127.406 278.886 127.725L278.893 127.73H278.891Z" fill="white"/>
<path d="M282.788 130.213L283.953 130.965C284.448 131.286 284.59 131.946 284.27 132.441C283.95 132.933 283.294 133.077 282.798 132.763H282.796L281.631 132.021H281.629C281.128 131.702 280.979 131.036 281.297 130.537C281.616 130.037 282.28 129.889 282.781 130.206L282.788 130.211V130.213Z" fill="white"/>
<path d="M286.661 132.735L287.818 133.499C288.301 133.818 288.433 134.469 288.113 134.951C287.796 135.431 287.149 135.564 286.668 135.25H286.666L285.509 134.498H285.506C285.018 134.179 284.879 133.527 285.197 133.039C285.514 132.552 286.168 132.414 286.656 132.73L286.664 132.735H286.661Z" fill="white"/>
<path d="M290.507 135.297L291.656 136.074C292.127 136.39 292.251 137.031 291.932 137.498C291.614 137.965 290.98 138.089 290.512 137.777H290.509L289.36 137.013C288.884 136.697 288.752 136.056 289.07 135.579C289.387 135.104 290.029 134.973 290.504 135.29L290.512 135.295L290.507 135.297Z" fill="white"/>
<path d="M294.328 137.896L295.47 138.682C295.928 138.999 296.042 139.625 295.728 140.082C295.413 140.537 294.791 140.653 294.333 140.344H294.33L293.185 139.57C292.722 139.256 292.601 138.626 292.915 138.163C293.23 137.701 293.859 137.58 294.325 137.894L294.333 137.899L294.328 137.896Z" fill="white"/>
<path d="M298.124 140.527L299.259 141.323C299.705 141.638 299.811 142.251 299.499 142.696C299.187 143.139 298.575 143.247 298.131 142.941H298.129L296.991 142.157C296.54 141.845 296.426 141.227 296.739 140.775C297.051 140.324 297.67 140.211 298.121 140.522L298.129 140.527H298.124Z" fill="white"/>
<path d="M301.898 143.19L303.026 143.994C303.459 144.303 303.561 144.907 303.249 145.342C302.939 145.772 302.339 145.874 301.903 145.569L300.773 144.778C300.332 144.471 300.226 143.866 300.533 143.425C300.84 142.985 301.447 142.879 301.888 143.186L301.898 143.193V143.19Z" fill="white"/>
<path d="M305.647 145.883L306.767 146.695C307.19 147.001 307.285 147.592 306.977 148.015C306.673 148.435 306.083 148.529 305.662 148.23L304.534 147.431C304.105 147.127 304.004 146.534 304.309 146.106C304.613 145.678 305.208 145.577 305.637 145.881L305.644 145.886L305.647 145.883Z" fill="white"/>
<path d="M309.379 148.586L310.499 149.397C310.913 149.696 311.007 150.275 310.707 150.688C310.41 151.099 309.832 151.193 309.418 150.898L308.291 150.097C307.872 149.798 307.773 149.217 308.073 148.799C308.373 148.381 308.955 148.282 309.374 148.581L309.381 148.586H309.379Z" fill="white"/>
<path d="M313.112 151.279L314.235 152.083C314.641 152.375 314.735 152.941 314.443 153.346C314.153 153.749 313.591 153.843 313.184 153.559L312.052 152.763C311.64 152.474 311.541 151.905 311.831 151.494C312.121 151.084 312.691 150.985 313.102 151.274L313.11 151.279H313.112Z" fill="white"/>
<path d="M316.862 153.942L317.992 154.731H317.994C318.396 155.013 318.492 155.565 318.212 155.965C317.932 156.363 317.385 156.462 316.986 156.188L315.841 155.404C315.435 155.124 315.33 154.57 315.61 154.167C315.89 153.762 316.445 153.658 316.849 153.937L316.857 153.942H316.859H316.862Z" fill="white"/>
<path d="M320.642 156.551L321.785 157.32H321.79C322.186 157.59 322.29 158.126 322.022 158.522C321.757 158.915 321.225 159.022 320.828 158.759L319.669 157.995C319.267 157.731 319.156 157.192 319.423 156.791C319.688 156.39 320.229 156.279 320.63 156.546L320.637 156.551H320.642Z" fill="white"/>
<path d="M324.471 159.081L325.63 159.82H325.635C326.029 160.075 326.143 160.597 325.89 160.987C325.64 161.378 325.122 161.492 324.731 161.247L323.554 160.51C323.155 160.26 323.036 159.736 323.286 159.34C323.536 158.942 324.062 158.824 324.458 159.073L324.466 159.078H324.471V159.081Z" fill="white"/>
<path d="M328.354 161.514L329.534 162.224L329.541 162.229C329.925 162.459 330.049 162.958 329.819 163.342C329.588 163.722 329.097 163.846 328.713 163.624L327.509 162.924C327.118 162.696 326.984 162.194 327.212 161.801C327.44 161.41 327.943 161.277 328.337 161.504L328.344 161.509L328.354 161.517V161.514Z" fill="white"/>
<path d="M332.311 163.829L333.513 164.492L333.52 164.496C333.897 164.704 334.033 165.176 333.825 165.552C333.619 165.923 333.151 166.062 332.777 165.861L331.548 165.206C331.164 165.001 331.017 164.524 331.223 164.14C331.429 163.757 331.907 163.611 332.291 163.816H332.298L332.311 163.826V163.829Z" fill="white"/>
<path d="M336.35 165.983L337.576 166.593L337.586 166.598C337.955 166.781 338.104 167.229 337.921 167.595C337.74 167.958 337.299 168.109 336.932 167.934L335.678 167.333C335.301 167.152 335.143 166.702 335.324 166.326C335.505 165.95 335.956 165.792 336.332 165.973H336.34L336.352 165.983H336.35Z" fill="white"/>
<path d="M340.475 167.951L341.729 168.5L341.739 168.505C342.098 168.663 342.262 169.081 342.106 169.44C341.95 169.796 341.536 169.959 341.179 169.808L339.896 169.269C339.529 169.116 339.355 168.693 339.512 168.327C339.665 167.961 340.089 167.788 340.456 167.944H340.461L340.475 167.951Z" fill="white"/>
<path d="M344.695 169.704L345.979 170.184L345.991 170.189C346.341 170.32 346.519 170.708 346.388 171.059C346.259 171.405 345.872 171.584 345.526 171.46L344.21 170.99C343.853 170.861 343.667 170.471 343.794 170.112C343.922 169.756 344.314 169.571 344.673 169.697H344.678L344.693 169.704H344.695Z" fill="white"/>
<path d="M349.007 171.2L350.32 171.591L350.333 171.596C350.672 171.697 350.868 172.056 350.766 172.395C350.665 172.731 350.313 172.924 349.973 172.83L348.63 172.452C348.283 172.353 348.08 171.994 348.179 171.645C348.279 171.299 348.638 171.096 348.987 171.195H348.992L349.009 171.203L349.007 171.2Z" fill="white"/>
<path d="M353.412 172.397L354.75 172.696H354.763C355.092 172.773 355.298 173.097 355.224 173.426C355.152 173.75 354.83 173.957 354.505 173.888L353.137 173.604C352.803 173.535 352.587 173.206 352.657 172.872C352.726 172.538 353.055 172.323 353.39 172.392H353.395L353.41 172.397H353.412Z" fill="white"/>
<path d="M357.895 173.28L359.25 173.483H359.263C359.577 173.532 359.795 173.824 359.748 174.138C359.701 174.45 359.414 174.665 359.102 174.623L357.719 174.437C357.397 174.395 357.174 174.101 357.216 173.779C357.258 173.458 357.553 173.235 357.875 173.277H357.897L357.895 173.28Z" fill="white"/>
<path d="M362.427 173.834L363.795 173.933H363.807C364.107 173.955 364.33 174.215 364.31 174.511C364.288 174.806 364.032 175.031 363.738 175.013L362.343 174.934C362.038 174.917 361.805 174.657 361.822 174.353C361.84 174.049 362.1 173.817 362.404 173.834H362.424H362.427Z" fill="white"/>
<path d="M366.991 174.034L368.362 174.022H368.374C368.654 174.019 368.884 174.244 368.887 174.524C368.889 174.801 368.669 175.028 368.391 175.036L366.996 175.07C366.709 175.078 366.471 174.85 366.466 174.566C366.459 174.279 366.687 174.042 366.971 174.037H366.991V174.034Z" fill="white"/>
<path d="M371.553 173.854L372.916 173.72H372.928C373.189 173.693 373.421 173.883 373.449 174.145C373.473 174.403 373.288 174.633 373.03 174.662L371.642 174.818C371.377 174.848 371.137 174.657 371.105 174.39C371.075 174.126 371.266 173.886 371.533 173.854H371.553Z" fill="white"/>
<path d="M376.08 173.26L377.425 173H377.438C377.676 172.951 377.904 173.107 377.951 173.344C377.995 173.577 377.844 173.804 377.614 173.854L376.248 174.145C376.006 174.197 375.765 174.042 375.713 173.799C375.661 173.557 375.817 173.317 376.06 173.265H376.067L376.082 173.26H376.08Z" fill="white"/>
<path d="M380.531 172.236L381.841 171.838L381.854 171.833C382.062 171.771 382.28 171.888 382.342 172.093C382.404 172.296 382.29 172.513 382.089 172.578L380.761 173.01C380.548 173.08 380.32 172.963 380.251 172.751C380.181 172.538 380.298 172.311 380.511 172.241H380.516L380.531 172.234V172.236Z" fill="white"/>
<path d="M384.842 170.738L386.1 170.194L386.113 170.189C386.289 170.112 386.492 170.194 386.569 170.369C386.643 170.542 386.566 170.743 386.395 170.822L385.127 171.401C384.946 171.482 384.733 171.403 384.648 171.223C384.567 171.042 384.646 170.829 384.827 170.745H384.832L384.844 170.738H384.842Z" fill="white"/>
<path d="M388.955 168.75L390.139 168.057L390.149 168.052C390.293 167.968 390.476 168.018 390.561 168.159C390.642 168.3 390.598 168.48 390.459 168.567L389.27 169.294C389.121 169.385 388.928 169.338 388.836 169.19C388.744 169.041 388.791 168.849 388.94 168.757H388.945L388.957 168.747L388.955 168.75Z" fill="white"/>
</g>
<defs>
<linearGradient id="paint0_linear_757_10004" x1="36.8754" y1="194.561" x2="534.336" y2="194.561" gradientUnits="userSpaceOnUse">
<stop stop-color="#DAE3FE"/>
<stop offset="1" stop-color="#E9EFFD"/>
</linearGradient>
<linearGradient id="paint1_linear_757_10004" x1="71.708" y1="273.892" x2="196.825" y2="273.892" gradientUnits="userSpaceOnUse">
<stop stop-color="#DAE3FE"/>
<stop offset="1" stop-color="#E9EFFD"/>
</linearGradient>
<linearGradient id="paint2_linear_757_10004" x1="69.0332" y1="299.637" x2="209.218" y2="299.637" gradientUnits="userSpaceOnUse">
<stop stop-color="#DAE3FE"/>
<stop offset="1" stop-color="#E9EFFD"/>
</linearGradient>
<linearGradient id="paint3_linear_757_10004" x1="69.0332" y1="306.425" x2="205.928" y2="306.425" gradientUnits="userSpaceOnUse">
<stop stop-color="#DAE3FE"/>
<stop offset="1" stop-color="#E9EFFD"/>
</linearGradient>
<linearGradient id="paint4_linear_757_10004" x1="69.0332" y1="311.42" x2="204.238" y2="311.42" gradientUnits="userSpaceOnUse">
<stop stop-color="#DAE3FE"/>
<stop offset="1" stop-color="#E9EFFD"/>
</linearGradient>
<linearGradient id="paint5_linear_757_10004" x1="219.37" y1="310.441" x2="53.4495" y2="310.441" gradientUnits="userSpaceOnUse">
<stop stop-color="#4042E2"/>
<stop offset="1" stop-color="#4F52FF"/>
</linearGradient>
<linearGradient id="paint6_linear_757_10004" x1="284.966" y1="352.039" x2="315.324" y2="92.3495" gradientUnits="userSpaceOnUse">
<stop stop-color="#09005D"/>
<stop offset="1" stop-color="#1A0F91"/>
</linearGradient>
<linearGradient id="paint7_linear_757_10004" x1="457.658" y1="59.7422" x2="-13.5544" y2="599.042" gradientUnits="userSpaceOnUse">
<stop stop-color="#4042E2"/>
<stop offset="1" stop-color="#4F52FF"/>
</linearGradient>
<linearGradient id="paint8_linear_757_10004" x1="130.082" y1="237.668" x2="131.222" y2="237.668" gradientUnits="userSpaceOnUse">
<stop stop-color="#DAE3FE"/>
<stop offset="1" stop-color="#E9EFFD"/>
</linearGradient>
<linearGradient id="paint9_linear_757_10004" x1="128.935" y1="167.291" x2="248.425" y2="167.291" gradientUnits="userSpaceOnUse">
<stop stop-color="#DAE3FE"/>
<stop offset="1" stop-color="#E9EFFD"/>
</linearGradient>
<linearGradient id="paint10_linear_757_10004" x1="300.666" y1="264.856" x2="304.367" y2="403.598" gradientUnits="userSpaceOnUse">
<stop stop-color="#09005D"/>
<stop offset="1" stop-color="#1A0F91"/>
</linearGradient>
<linearGradient id="paint11_linear_757_10004" x1="163.29" y1="231.471" x2="446.091" y2="231.471" gradientUnits="userSpaceOnUse">
<stop stop-color="#DAE3FE"/>
<stop offset="1" stop-color="#E9EFFD"/>
</linearGradient>
<linearGradient id="paint12_linear_757_10004" x1="301.071" y1="204.091" x2="59.7426" y2="347.516" gradientUnits="userSpaceOnUse">
<stop stop-color="#4042E2"/>
<stop offset="1" stop-color="#4F52FF"/>
</linearGradient>
<linearGradient id="paint13_linear_757_10004" x1="353.863" y1="194.165" x2="424.856" y2="194.165" gradientUnits="userSpaceOnUse">
<stop stop-color="#DAE3FE"/>
<stop offset="1" stop-color="#E9EFFD"/>
</linearGradient>
<linearGradient id="paint14_linear_757_10004" x1="353.863" y1="237.606" x2="424.856" y2="237.606" gradientUnits="userSpaceOnUse">
<stop stop-color="#DAE3FE"/>
<stop offset="1" stop-color="#E9EFFD"/>
</linearGradient>
<linearGradient id="paint15_linear_757_10004" x1="353.863" y1="281.046" x2="424.856" y2="281.046" gradientUnits="userSpaceOnUse">
<stop stop-color="#DAE3FE"/>
<stop offset="1" stop-color="#E9EFFD"/>
</linearGradient>
<linearGradient id="paint16_linear_757_10004" x1="163.29" y1="167.676" x2="446.091" y2="167.676" gradientUnits="userSpaceOnUse">
<stop stop-color="#DAE3FE"/>
<stop offset="1" stop-color="#E9EFFD"/>
</linearGradient>
<linearGradient id="paint17_linear_757_10004" x1="306.03" y1="260.188" x2="337.268" y2="260.188" gradientUnits="userSpaceOnUse">
<stop stop-color="#DAE3FE"/>
<stop offset="1" stop-color="#E9EFFD"/>
</linearGradient>
<linearGradient id="paint18_linear_757_10004" x1="316.167" y1="260.074" x2="332.389" y2="260.074" gradientUnits="userSpaceOnUse">
<stop stop-color="#DAE3FE"/>
<stop offset="1" stop-color="#E9EFFD"/>
</linearGradient>
<linearGradient id="paint19_linear_757_10004" x1="300.452" y1="237.723" x2="210.125" y2="251.101" gradientUnits="userSpaceOnUse">
<stop stop-color="#FE7062"/>
<stop offset="1" stop-color="#FF928E"/>
</linearGradient>
<linearGradient id="paint20_linear_757_10004" x1="305.618" y1="165.892" x2="239.35" y2="237.111" gradientUnits="userSpaceOnUse">
<stop stop-color="#E1473D"/>
<stop offset="1" stop-color="#E9605A"/>
</linearGradient>
<linearGradient id="paint21_linear_757_10004" x1="247.205" y1="213.839" x2="286.4" y2="213.839" gradientUnits="userSpaceOnUse">
<stop stop-color="#FE7062"/>
<stop offset="1" stop-color="#FF928E"/>
</linearGradient>
<linearGradient id="paint22_linear_757_10004" x1="225.441" y1="184.073" x2="242.551" y2="273.585" gradientUnits="userSpaceOnUse">
<stop stop-color="#FE7062"/>
<stop offset="1" stop-color="#FF928E"/>
</linearGradient>
<linearGradient id="paint23_linear_757_10004" x1="438.091" y1="88.1377" x2="413.653" y2="208.349" gradientUnits="userSpaceOnUse">
<stop stop-color="#09005D"/>
<stop offset="1" stop-color="#1A0F91"/>
</linearGradient>
<linearGradient id="paint24_linear_757_10004" x1="481.756" y1="20.0309" x2="435.812" y2="112.105" gradientUnits="userSpaceOnUse">
<stop stop-color="#09005D"/>
<stop offset="1" stop-color="#1A0F91"/>
</linearGradient>
<linearGradient id="paint25_linear_757_10004" x1="457.259" y1="86.0062" x2="492.808" y2="219.588" gradientUnits="userSpaceOnUse">
<stop stop-color="#09005D"/>
<stop offset="1" stop-color="#1A0F91"/>
</linearGradient>
<linearGradient id="paint26_linear_757_10004" x1="105.603" y1="352.944" x2="114.394" y2="352.944" gradientUnits="userSpaceOnUse">
<stop stop-color="#FE7062"/>
<stop offset="1" stop-color="#FF928E"/>
</linearGradient>
<linearGradient id="paint27_linear_757_10004" x1="134.057" y1="352.944" x2="142.848" y2="352.944" gradientUnits="userSpaceOnUse">
<stop stop-color="#FE7062"/>
<stop offset="1" stop-color="#FF928E"/>
</linearGradient>
<linearGradient id="paint28_linear_757_10004" x1="105.241" y1="330.073" x2="143.185" y2="330.073" gradientUnits="userSpaceOnUse">
<stop stop-color="#FE7062"/>
<stop offset="1" stop-color="#FF928E"/>
</linearGradient>
<linearGradient id="paint29_linear_757_10004" x1="169.413" y1="331.185" x2="163.69" y2="370.808" gradientUnits="userSpaceOnUse">
<stop stop-color="#4042E2"/>
<stop offset="1" stop-color="#4F52FF"/>
</linearGradient>
<linearGradient id="paint30_linear_757_10004" x1="154.261" y1="365.217" x2="159.95" y2="365.217" gradientUnits="userSpaceOnUse">
<stop stop-color="#FF928E"/>
<stop offset="1" stop-color="#FEB3B1"/>
</linearGradient>
<linearGradient id="paint31_linear_757_10004" x1="197.876" y1="335.295" x2="192.153" y2="374.918" gradientUnits="userSpaceOnUse">
<stop stop-color="#4042E2"/>
<stop offset="1" stop-color="#4F52FF"/>
</linearGradient>
<linearGradient id="paint32_linear_757_10004" x1="152.831" y1="336.972" x2="180.493" y2="392.408" gradientUnits="userSpaceOnUse">
<stop stop-color="#09005D"/>
<stop offset="1" stop-color="#1A0F91"/>
</linearGradient>
<linearGradient id="paint33_linear_757_10004" x1="181.213" y1="365.696" x2="188.007" y2="365.696" gradientUnits="userSpaceOnUse">
<stop stop-color="#FF928E"/>
<stop offset="1" stop-color="#FEB3B1"/>
</linearGradient>
<linearGradient id="paint34_linear_757_10004" x1="112.784" y1="303.319" x2="167.696" y2="351.403" gradientUnits="userSpaceOnUse">
<stop stop-color="#09005D"/>
<stop offset="1" stop-color="#1A0F91"/>
</linearGradient>
<linearGradient id="paint35_linear_757_10004" x1="150.267" y1="255.212" x2="135.449" y2="286.146" gradientUnits="userSpaceOnUse">
<stop stop-color="#FF928E"/>
<stop offset="1" stop-color="#FEB3B1"/>
</linearGradient>
<linearGradient id="paint36_linear_757_10004" x1="145.42" y1="298.175" x2="121.711" y2="347.175" gradientUnits="userSpaceOnUse">
<stop stop-color="#FE7062"/>
<stop offset="1" stop-color="#FF928E"/>
</linearGradient>
<linearGradient id="paint37_linear_757_10004" x1="156.293" y1="262.233" x2="150.968" y2="272.907" gradientUnits="userSpaceOnUse">
<stop stop-color="#E1473D"/>
<stop offset="1" stop-color="#E9605A"/>
</linearGradient>
<linearGradient id="paint38_linear_757_10004" x1="172.092" y1="302.941" x2="187.784" y2="302.941" gradientUnits="userSpaceOnUse">
<stop stop-color="#FF928E"/>
<stop offset="1" stop-color="#FEB3B1"/>
</linearGradient>
<linearGradient id="paint39_linear_757_10004" x1="133.825" y1="158.742" x2="136.859" y2="178.047" gradientUnits="userSpaceOnUse">
<stop stop-color="#FF928E"/>
<stop offset="1" stop-color="#FEB3B1"/>
</linearGradient>
<linearGradient id="paint40_linear_757_10004" x1="140.669" y1="244.568" x2="158.288" y2="262.018" gradientUnits="userSpaceOnUse">
<stop stop-color="#09005D"/>
<stop offset="1" stop-color="#1A0F91"/>
</linearGradient>
<linearGradient id="paint41_linear_757_10004" x1="128.384" y1="159.596" x2="131.418" y2="178.902" gradientUnits="userSpaceOnUse">
<stop stop-color="#FF928E"/>
<stop offset="1" stop-color="#FEB3B1"/>
</linearGradient>
<linearGradient id="paint42_linear_757_10004" x1="-3190.67" y1="-3285.94" x2="-3135.32" y2="-3226.75" gradientUnits="userSpaceOnUse">
<stop stop-color="#09005D"/>
<stop offset="1" stop-color="#1A0F91"/>
</linearGradient>
<linearGradient id="paint43_linear_757_10004" x1="4889.21" y1="-1245.05" x2="4812.16" y2="-1219.67" gradientUnits="userSpaceOnUse">
<stop stop-color="#09005D"/>
<stop offset="1" stop-color="#1A0F91"/>
</linearGradient>
<linearGradient id="paint44_linear_757_10004" x1="426.309" y1="374.44" x2="426.138" y2="386.771" gradientUnits="userSpaceOnUse">
<stop stop-color="#09005D"/>
<stop offset="1" stop-color="#1A0F91"/>
</linearGradient>
<linearGradient id="paint45_linear_757_10004" x1="402.296" y1="307.307" x2="430.228" y2="374.925" gradientUnits="userSpaceOnUse">
<stop stop-color="#FF928E"/>
<stop offset="1" stop-color="#FEB3B1"/>
</linearGradient>
<linearGradient id="paint46_linear_757_10004" x1="451.986" y1="307.164" x2="424.053" y2="374.779" gradientUnits="userSpaceOnUse">
<stop stop-color="#FF928E"/>
<stop offset="1" stop-color="#FEB3B1"/>
</linearGradient>
<linearGradient id="paint47_linear_757_10004" x1="427.193" y1="316.079" x2="425.745" y2="374.831" gradientUnits="userSpaceOnUse">
<stop stop-color="#09005D"/>
<stop offset="1" stop-color="#1A0F91"/>
</linearGradient>
<linearGradient id="paint48_linear_757_10004" x1="454.129" y1="323.915" x2="438.017" y2="367.646" gradientUnits="userSpaceOnUse">
<stop stop-color="#FF928E"/>
<stop offset="1" stop-color="#FEB3B1"/>
</linearGradient>
<linearGradient id="paint49_linear_757_10004" x1="421.734" y1="310.745" x2="405.613" y2="354.496" gradientUnits="userSpaceOnUse">
<stop stop-color="#FF928E"/>
<stop offset="1" stop-color="#FEB3B1"/>
</linearGradient>
<linearGradient id="paint50_linear_757_10004" x1="442.221" y1="326.126" x2="410.357" y2="385.155" gradientUnits="userSpaceOnUse">
<stop stop-color="#E1473D"/>
<stop offset="1" stop-color="#E9605A"/>
</linearGradient>
<linearGradient id="paint51_linear_757_10004" x1="419.479" y1="316.269" x2="419.479" y2="340.379" gradientUnits="userSpaceOnUse">
<stop stop-color="#E1473D"/>
<stop offset="1" stop-color="#E9605A"/>
</linearGradient>
<linearGradient id="paint52_linear_757_10004" x1="427.857" y1="285.646" x2="425.224" y2="312.024" gradientUnits="userSpaceOnUse">
<stop stop-color="#FF928E"/>
<stop offset="1" stop-color="#FEB3B1"/>
</linearGradient>
<linearGradient id="paint53_linear_757_10004" x1="427.024" y1="276.924" x2="428.833" y2="294.069" gradientUnits="userSpaceOnUse">
<stop stop-color="#FF928E"/>
<stop offset="1" stop-color="#FEB3B1"/>
</linearGradient>
<linearGradient id="paint54_linear_757_10004" x1="426.357" y1="374.44" x2="426.185" y2="386.774" gradientUnits="userSpaceOnUse">
<stop stop-color="#09005D"/>
<stop offset="1" stop-color="#1A0F91"/>
</linearGradient>
<linearGradient id="paint55_linear_757_10004" x1="420.022" y1="277.661" x2="421.833" y2="294.808" gradientUnits="userSpaceOnUse">
<stop stop-color="#FF928E"/>
<stop offset="1" stop-color="#FEB3B1"/>
</linearGradient>
<linearGradient id="paint56_linear_757_10004" x1="427.029" y1="311.536" x2="426.091" y2="356.525" gradientUnits="userSpaceOnUse">
<stop stop-color="#4042E2"/>
<stop offset="1" stop-color="#4F52FF"/>
</linearGradient>
<clipPath id="clip0_757_10004">
<rect width="518" height="335" fill="white" transform="translate(31 39)"/>
</clipPath>
</defs>
</svg>
